<?xml version="1.0" encoding="UTF-8"?>
<svg id="Layer_1" data-name="Layer 1" xmlns="http://www.w3.org/2000/svg" viewBox="0 0 1366 768">
  <g>
    <path d="M535.81,115.46c3.49-6.84-3.17-5.14-6.05-12.35-2.88-7.21,1.52-11.06-3.06-14.03-6.62-4.3-11.79,7.25-7.23,17.76,3.09,7.12,14.86,11.53,16.34,8.62Z"/>
    <path d="M492.87,122.15c5.78-5.06-1.04-5.95-1.04-13.71s5.51-9.71,2.36-14.17c-4.55-6.45-13.64,2.36-13.3,13.82.23,7.76,9.53,16.21,11.98,14.06Z"/>
    <path d="M429.12,132.8c1.48,2.91,13.25-1.5,16.34-8.62,4.56-10.51-.62-22.06-7.23-17.76-4.58,2.98-.18,6.82-3.06,14.03-2.88,7.21-9.54,5.51-6.05,12.35Z"/>
    <path d="M505.96,98.26c4.81.55,5.62,4.1,8.61,2.47,4.32-2.36-.5-8.62-7.62-9.22-4.83-.41-10.72,4.75-9.56,6.43,2.72,3.94,3.76-.22,8.57.33Z"/>
    <path d="M507.2,112.53c5.49,5.49,2.97,10.76,8.35,11.68,7.78,1.34,7.97-11.32-.37-19.18-5.65-5.32-18.2-4.72-18.42-1.46-.51,7.66,4.94,3.47,10.44,8.96Z"/>
    <path d="M329.1,97.87c5.49,5.49,2.97,10.76,8.35,11.68,7.78,1.34,7.97-11.32-.37-19.18-5.65-5.32-18.2-4.72-18.42-1.46-.51,7.66,4.94,3.47,10.44,8.96Z"/>
    <path d="M357.71,100.79c3.49-6.84-3.17-5.14-6.05-12.35-2.88-7.21,1.52-11.06-3.06-14.03-6.62-4.3-11.79,7.25-7.23,17.76,3.09,7.12,14.86,11.53,16.34,8.62Z"/>
    <path d="M607.21,147.46c1.48,2.91,13.25-1.5,16.34-8.62,4.56-10.51-.61-22.06-7.23-17.76-4.58,2.98-.18,6.82-3.06,14.03-2.88,7.21-9.54,5.51-6.05,12.35Z"/>
    <path d="M588.31,368.53c1.69-.23,3.6-1.07,5.41-2.43,1.1-.69,2.17-1.5,3.13-2.4,2.98,4.69,6.74,8.87,14.94,11.61,3.01,1.39,9.86,2.79,15.44,2.3-.28.01-.56.03-.86.03-5.25,0-12.17-1.9-14.4-2.64-10.57-3.48-14.31-10.16-17.62-16.04-1.68-2.99-3.26-5.81-5.69-8.29-8.38-8.55-25.91-14.29-43.61-14.29-6.54,0-12.56.8-17.39,2.33-1.54.48-3.13,1.07-4.74,1.72.93-.32,1.87-.62,2.83-.9,1.07,1.39,2.26,2.6,3.41,3.51-.4.2-.79.43-1.17.71-2.28,1.68-2.88,6.22-1.72,6.51,2.72.68,1.57-1.55,3.89-3.16,2.33-1.61,4.05-.37,4.73-2.24.16-.45.16-.85.05-1.19,2.31-2.46,1.35-3.92.1-6.07.84-.12,1.69-.22,2.55-.31,1.24,3.84,3.84,7.01,5.28,6.33,3.99-1.89,2.09-3.54,1.75-6.75,1.36-.02,2.72,0,4.08.05-.14.82-.24,1.67-.28,2.54-.12,2.57.74,5.3,2.05,7.72-2.85.73-7.93,6.31-7.67,11.06.47,8.25,8.51,13.89,11.83,8.93,2.3-3.44-2.36-4.42-2.86-9.99-.25-2.74.97-4.41,1.66-5.78.29.32.57.62.86.89-.66,3.07-.57,7.06,1.14,9.82,4.7,7.6,14.4,9.41,14.59,3.27.13-4.25-4.29-3.15-7.62-8.19-1.04-1.58-1.36-3-1.49-4.24,2.26-2.6.04-4.32-1.08-7.77.58-.16,1.13-.39,1.6-.72.32-.22.6-.46.87-.71.18,2.13.7,4.37,1.65,6.56,3.09,7.12,14.86,11.53,16.34,8.62,3.49-6.84-3.17-5.14-6.05-12.35-.75-1.87-1-3.5-1.05-4.96,1.02.39,2.02.81,2.99,1.25.99,7.44,9.55,15.02,11.88,12.97,1.21-1.06,1.86-1.93,2.15-2.73.06.08.13.17.19.25-.16.73-.38,1.49-.71,2.3-.51,1.27-1.13,2.26-1.79,3.07-1.95,1.72-3.85,2.45-4.51,4.12-.92,1.11-1.12,2.48.25,5.16.53,1.04,2.37,1.14,4.65.53ZM559.33,340.49c.08-.89.22-1.71.41-2.45.37.06.74.12,1.11.19-.34.66-.71,1.47-1.53,2.27Z"/>
    <path d="M632.12,376.45c1.92-.88,3.21-2.3,3.4-4.42-.13.64-.36,1.26-.69,1.85-.62,1.1-1.54,1.94-2.71,2.56Z"/>
    <path d="M314.77,107.49c5.78-5.06-1.04-5.95-1.04-13.71s5.51-9.71,2.36-14.17c-4.55-6.45-13.64,2.36-13.3,13.82.23,7.76,9.53,16.21,11.98,14.06Z"/>
    <path d="M645.31,346.08l-2.03,1.17c-3.31,1.91-6.81,3.39-10.7,4.53-5.35,1.57-10.78,1.62-16.04,1.67-1.51.01-2.98.03-4.43.07.07.11.14.21.21.31.95.03,1.9.04,2.85.04.78,1.52,1.77,2.93,2.83,4.16,1.91.77,4.18,1.57,5.95,2.19.94.33,1.79.63,2.56.91,2.76-3.04.49-4.56-1.01-7.87,7.03-.91,13.9-2.95,19.82-7,0-.06,0-.12-.01-.18Z"/>
    <path d="M695.69,257.07c1.48,2.91,13.25-1.5,16.34-8.62,4.56-10.51-.62-22.06-7.23-17.76-4.58,2.98-.18,6.82-3.06,14.03-2.88,7.21-9.54,5.51-6.05,12.35Z"/>
    <path d="M673.83,334.81c2.19,1.04,7.13-6.89,5.72-12.48-2.08-8.26-10.36-12.72-12.31-7.19-1.35,3.83,2.99,4.1,4.56,9.65,1.57,5.55-3.12,7.57,2.03,10.02Z"/>
    <path d="M657.43,345.59c2.61,1.95,11.22-7.19,10.85-14.95-.55-11.45-10.3-19.52-14.33-12.74-2.79,4.69,2.85,6.2,3.45,13.94.6,7.74-6.13,9.16.03,13.75Z"/>
    <path d="M327.86,83.6c4.81.55,5.62,4.1,8.61,2.47,4.32-2.36-.5-8.62-7.62-9.22-4.83-.41-10.72,4.75-9.56,6.43,2.72,3.94,3.76-.22,8.57.33Z"/>
    <path d="M233.09,396.62c7.62-.6,4.78-12.53-4.93-17.91-6.58-3.65-18.22-.08-17.64,3.02,1.35,7.32,5.47,2.08,11.94,5.92,6.47,3.84,5.36,9.39,10.63,8.97Z"/>
    <path d="M206.55,385.26c-.31,2.02,1.23,1.04,2.56,2.62,1.33,1.59.54,2.92,1.94,3.3,2.03.54,2.38-2.82.35-5.1-1.38-1.55-4.72-1.68-4.85-.82Z"/>
    <path d="M208.07,364.64c-5.93.8-1.88,4.32-5.22,9.36-3.34,5.05-7.75,3.94-7.62,8.19.19,6.15,9.88,4.33,14.59-3.27,3.19-5.15.77-14.63-1.74-14.29Z"/>
    <path d="M246.12,421.33c5.78-5.06-1.04-5.95-1.04-13.71s5.51-9.71,2.36-14.17c-4.55-6.45-13.64,2.36-13.3,13.82.23,7.76,9.53,16.21,11.98,14.06Z"/>
    <path d="M238.34,424.43c3.49-6.84-3.17-5.14-6.05-12.35-2.88-7.21,1.52-11.06-3.06-14.03-6.62-4.3-11.79,7.25-7.23,17.76,3.09,7.12,14.86,11.53,16.34,8.62Z"/>
    <path d="M187.43,366c-2.88-7.21,1.52-11.06-3.06-14.03-6.62-4.3-11.79,7.25-7.23,17.76,3.09,7.12,14.86,11.53,16.34,8.62,3.49-6.84-3.17-5.14-6.05-12.35Z"/>
    <path d="M192.08,410.05c5.78-5.06-1.04-5.95-1.04-13.71s5.51-9.71,2.36-14.17c-4.55-6.45-13.64,2.36-13.3,13.82.23,7.76,9.53,16.21,11.98,14.06Z"/>
    <path d="M188.23,359.62c.23,7.76,9.53,16.21,11.98,14.06,5.78-5.06-1.04-5.95-1.04-13.71,0-.29.02-.56.04-.84.67.05,1.32.08,1.91.1.3.12.64.28.99.45.47.58,1.04,1.13,1.71,1.6.7.49,1.58.76,2.48.89.02.01.05.03.07.05.01-.01.02-.02.03-.03,2.37.29,4.89-.47,4.81-1.4-.1-1.28-.5-1.68-1.11-1.85.31-.24.63-.46.95-.68,1.79,1.57,3.49,2.3,4.43,1.6,2.76-2.06,2.93-3.48,2.33-5.12.58-.21,1.16-.39,1.75-.56.18.53.38,1.05.6,1.57.4.92.95,1.8,1.61,2.62,1.63-1.6,4.56-2.13,10.5-3.2.02,0,.03,0,.05,0-.45-.54-.89-1.15-1.29-1.89,1.08.1,2.18.26,3.29.45.19.33.39.64.59.96.94-.18,1.94-.37,2.94-.59-2.77-.56-5.83-1-7.89-1.12-1.56-.09-2.87-.14-3.99-.14-5.44,0-8.35,1-14.13,4.85-1.07.71-2.05,1.45-2.91,2.2l-2.35,2.03-2.62-1.67c-.3-.19-.59-.35-.87-.48l-1.76-.83c-.09,0-.17,0-.25-.01-2.77-.11-6.96-.28-8.04-4.13-1.08-3.84,2.5-6.98,7.29-10.27-.65-.5-1.35-.77-2.07-.85l-1.05,1.25-2.44-.5c-.24-.05-.48-.08-.72-.11-.1.14-.22.28-.34.42.05-.04.11-.08.15-.12.14,0,.41.06.74.12-3.48,2.34-6.54,8.16-6.34,14.89Z"/>
    <path d="M235.33,335.85c3.77.41,7.35,1.23,10.69,2.45.69-1.61.91-3.05-.42-4.92-2.79-3.96-7.29-2.15-10.27,2.47Z"/>
    <path d="M249.13,379.26c-5.67,5.18,1.16,5.93,1.33,13.69.16,7.76-5.31,9.82-2.07,14.21,4.68,6.35,13.59-2.64,13.01-14.09-.39-7.76-9.86-16.01-12.27-13.81Z"/>
    <path d="M259.3,344.38c2.51,1.27,5.12,2.62,7.73,4,0-1.61-.4-2.93-2.21-4.11-2.07-1.34-3.99-1.13-5.52.11Z"/>
    <path d="M295.28,267.35c-5.27-5.87-13.27,3.93-11.6,15.27.44,2.96,2.24,5.85,4.4,8.17,3.04,1.41,6.31,2.59,9.69,3.75,4.05-5.06-2.31-5.45-3.18-12.85-.9-7.71,4.34-10.28.7-14.34Z"/>
    <path d="M308.21,294.56c-2.36-3.35-5.95-2.57-8.81.55,3.17,1.09,6.42,2.23,9.54,3.54.41-1.29.37-2.54-.73-4.09Z"/>
    <path d="M276.23,379.33c-1.36-.52-3.3-.82-5.35-1.14-4.21-.65-8.98-1.38-12.19-4.64-2.08-2.1-2.63-4.37-2.85-5.91-.52.02-1.13.08-1.84.16-1.65.21-5.02,1.2-8.29,2.17-5.78,1.71-12.33,3.64-16.8,3.64-2.37,0-4.19-.53-5.57-1.62-3.12-2.47-4.35-9.54-2.24-12.81.09-.14.18-.26.28-.39-.21.22-.37.45-.47.69-.9,1.4-1.19,3.49-.98,5.62-2.55-1.82-3.54-3.9-6.43-2.82-5.76,2.15-.93,10.75,7.77,12.77,2.53.59,5.49-.06,7.95-1.17,1.57.04,3.21-.14,4.89-.45-.18,1.09-.26,2.24-.23,3.42.2,6.63,8.13,13.84,10.23,12,4.93-4.32-.89-5.08-.89-11.71,0-3.12,1.04-5.14,1.86-6.8.57-.18,1.13-.36,1.69-.53.12.29.27.6.51.92,2.18,2.96,5.68,1.16,7.65-2.74.24-.02.48-.04.71-.05.12.76.31,1.45.53,2.09-2.19,1.3-3.81,3.55-3.14,4.3,2.13,2.37,2.54-.25,5.54-.5.5.48,1.04.9,1.62,1.28-1.67-.22-2.93.03-3.34.87-3.35,6.91,3.28,5.07,6.31,12.22,3.03,7.15-1.29,11.09,3.35,13.96,6.7,4.16,11.64-7.49,6.86-17.91-1.21-2.65-3.64-4.89-6.28-6.5,2.42.6,4.96,1.08,7.35,1.78-.59,6.27,2,13.12,4.44,12.71,5.12-.86,4.34-3.12,4.56-6.53-1.81-2.81-3.64-5.04-7.2-6.41Z"/>
    <path d="M249.84,375.31c-1.73-1.28-1.25-2.83-2.77-2.87-2.19-.05-1.73,3.43.88,5.25,1.77,1.23,5.19.56,5.12-.35-.17-2.12-1.5-.75-3.23-2.03Z"/>
    <path d="M256.91,425.37c2.97-5.97-.64-16.13-3.37-15.5-6.43,1.49-1.62,4.93-4.77,10.81-3.15,5.88-8.1,5.11-7.53,9.77.83,6.73,11.28,3.74,15.67-5.07Z"/>
    <path d="M254.45,141.63c3.49-6.84-3.17-5.14-6.05-12.35-2.88-7.21,1.52-11.06-3.06-14.03-6.62-4.3-11.79,7.25-7.23,17.76,3.09,7.12,14.86,11.53,16.34,8.62Z"/>
    <path d="M275.76,430.73c3.49-6.84-3.17-5.14-6.05-12.35-2.88-7.21,1.52-11.06-3.06-14.03-6.62-4.3-11.79,7.25-7.23,17.76,3.09,7.12,14.86,11.53,16.34,8.62Z"/>
    <path d="M271.56,413.57c.23,7.76,9.53,16.21,11.98,14.06,5.78-5.06-1.04-5.95-1.04-13.71s5.51-9.71,2.36-14.17c-4.55-6.45-13.64,2.36-13.3,13.82Z"/>
    <path d="M633.22,232.24c-1.53-.99-2.73,1.68-1.67,4.11.72,1.65,3.44,2.66,3.78,1.99.81-1.58-.73-1.19-1.4-2.86-.67-1.67.35-2.56-.71-3.24Z"/>
    <path d="M663.34,311.76c-2.03,2.28-1.68,5.63.35,5.1,1.41-.37.61-1.71,1.94-3.3,1.33-1.59,2.87-.6,2.56-2.62-.13-.86-3.48-.72-4.85.82Z"/>
    <path d="M679.52,307.88c.13-4.25-4.29-3.15-7.62-8.19-3.34-5.05.71-8.56-5.22-9.36-2.52-.34-4.93,9.15-1.74,14.29,4.7,7.6,14.4,9.41,14.59,3.27Z"/>
    <path d="M650.49,271.59c-1.32.96-4.62,4.32-7.19,7.37,1.75-.32,3.63-.74,5.52-1.31l3.75-1.13c.27-1.61.32-3.38.11-5.23.31-.06.63-.1.96-.13,0-.09.02-.18.03-.27l-2.76.6c-.18.04-.31.08-.41.11Z"/>
    <path d="M672.21,279.36c-2.19.05-1.5,2.29-4,4.15-2.5,1.86-4.42-.13-4.67,2.94-.11,1.3,4.84,2.28,7.4.5,3.78-2.63,4.44-7.66,1.28-7.59Z"/>
    <path d="M672.87,235.94c-2.16-1.53-3.1,1.13-6.86,1.13-3.76,0-4.18-3.31-6.64-.52-1.04,1.19,3.03,5.7,6.79,5.82,5.55.18,9.82-4.21,6.71-6.42Z"/>
    <path d="M643.23,302.49l4.37.72-.98,4.32c-.1.43-.16.84-.19,1.23-.17,2.42.02,4.95.32,7.41,1.66,1.11,3.15,1.52,3.93.83,5.78-5.06-1.04-5.95-1.04-13.71,0-1.9.33-3.45.78-4.77.75-.11,1.49-.25,2.23-.42-.26.88-.4,1.77-.35,2.63.47,8.25,8.51,13.89,11.83,8.93,2.3-3.44-2.36-4.42-2.86-9.99-.5-5.57,5.04-6.72-.04-9.92-.96-.6-2.89.41-4.72,2.2.02.06.03.12.05.18l1.27,3.93-3.91,1.32c-.41.14-.9.3-1.42.42-2.67.64-5.35.94-8.44.94-1.82,0-3.55-.1-5.22-.2-1.6-.09-3.12-.18-4.65-.18-2.3,0-5,.18-8.18,1.29.17.04.35.07.53.11,2.94-.78,5.86-1.01,8.77-1.04.68.5,1.22.84,2.14.41.24-.11.42-.25.57-.4.32,0,.65.02.97.03-.17.97-.25,1.97-.28,3,1.38.22,2.87.46,4.51.73Z"/>
    <path d="M627.67,299.98c2.11.39,4.48.76,7.46,1.23.24.04.49.08.73.11-1.4-2.34-4.65-2.7-8.2-1.34Z"/>
    <path d="M653.35,256.09c-.89,1.49-.96,2.68-.62,3.84l2.62.58-.59,3.35c1,1.76,2.02,3.91,2.26,7.03.64,8.22-6.5,9.72.03,14.6,2.77,2.07,11.92-7.64,11.52-15.87-.58-12.15-10.93-20.72-15.22-13.53Z"/>
    <path d="M662.54,252.54c.98.6,3.7-2.88,3.31-5.58-.56-3.99-4.23-6.5-5.43-4-.83,1.73,1.2,2.08,1.66,4.77.46,2.69-1.85,3.4.45,4.81Z"/>
    <path d="M482.31,367.32c-1.73-1.28-1.25-2.83-2.77-2.87-2.19-.05-1.73,3.43.88,5.25,1.77,1.23,5.19.56,5.12-.35-.17-2.12-1.5-.75-3.23-2.03Z"/>
    <path d="M675.38,240.08c-1.91-1.68-9.18,4.87-9.39,10.92-.31,8.93,6.75,15.82,10.32,10.82,2.47-3.46-1.82-5-1.79-11.05.03-6.05,5.35-6.72.86-10.69Z"/>
    <path d="M541.2,374.52c5.78-5.06-1.04-5.95-1.04-13.71s5.51-9.71,2.36-14.17c-4.55-6.45-13.64,2.36-13.3,13.82.23,7.76,9.53,16.21,11.98,14.06Z"/>
    <path d="M491.41,365.84c3.35-.04,4.22,2.33,6.13.95,2.76-2-1.09-5.88-6.04-5.67-3.35.14-6.95,4.2-6.01,5.25,2.21,2.47,2.56-.48,5.92-.52Z"/>
    <path d="M636.87,242.88c.23,7.76,9.53,16.21,11.98,14.06,5.78-5.06-1.04-5.95-1.04-13.71s5.51-9.71,2.36-14.17c-4.55-6.45-13.64,2.36-13.3,13.82Z"/>
    <path d="M657.62,229.64c-2.05-1.5-8.7,5.67-8.37,11.72.5,8.92,8.14,15.15,11.25,9.84,2.15-3.67-2.26-4.81-2.78-10.84-.52-6.03,4.72-7.18-.11-10.72Z"/>
    <path d="M631.2,250.59c-.21.1-.42.23-.62.36,2.04,1.23,4.03,2.34,6,3.32l.79.39c.81,0,1.46-.17,2-1.07,1.85-3.07-3.47-5.24-8.17-3Z"/>
    <path d="M523.54,368.17c-3.18,1.51-5,6.92-3.65,7.55,3.16,1.48,2.28-1.52,5.51-2.94,3.23-1.42,5.04.52,6.32-1.61,1.85-3.07-3.47-5.24-8.17-3Z"/>
    <path d="M616.18,248.45c-.84,1.45-1.31,3.15-1.54,4.92l4.6.92c.8-1.09,1.45-2.22,1.89-3.38l1.85-4.82,4.33,2.82c.69.45,1.36.87,2.02,1.28,3-2.17,5.65-2.76,5.42-6.52-.49-7.88-12.85-5.15-18.57,4.78Z"/>
    <path d="M498.96,394.2c6.7,4.16,11.64-7.49,6.86-17.91-3.24-7.06-15.09-11.22-16.51-8.28-3.35,6.91,3.28,5.07,6.31,12.22,3.03,7.15-1.29,11.09,3.35,13.96Z"/>
    <path d="M419.94,161.03c.34-11.46-8.75-20.26-13.3-13.82-.69.98-.95,1.83-.96,2.65,1.39.55,2.36,1.37,2.97,2.5.84,1.56.76,3.41-.22,4.97.33,1.16.57,2.48.57,4.05,0,7.77-6.82,8.66-1.04,13.71,2.45,2.15,11.75-6.3,11.98-14.06Z"/>
    <path d="M423.8,153.37c-4.58,2.98-.18,6.82-3.06,14.03-2.88,7.21-9.54,5.51-6.05,12.35,1.07,2.1,7.53.38,12.19-3.44.06,1.49-.06,3.01-.33,4.49-.76.8-1.16,1.7-.85,3.13-.23.65-.5,1.28-.79,1.89-2.98-4.46-7.39-6.14-10.13-2.24-2.37,3.36.16,5.3,1.56,9.36.22-.09.45-.18.66-.26,1.68-.65,3.14-1.2,4.4-2.23,4.72-3.86,7.13-12.94,4.94-18.69l-.96-2.54,1.93-1.91.04-.04c.93-.92,1.19-1.11,2.43-1.88l.74-.46c.61-.38,1.21-.72,1.79-1.04.12-.11.28-.21.43-.32.26-7.61-3.92-13.46-8.94-10.2Z"/>
    <path d="M419.23,130.56c-3.34-5.05.71-8.56-5.22-9.36-2.52-.34-4.93,9.15-1.74,14.29,4.7,7.6,14.4,9.41,14.59,3.27.13-4.25-4.29-3.15-7.62-8.19Z"/>
    <path d="M424.95,144.27c-4.95-.21-8.8,3.67-6.04,5.67,1.91,1.38,2.78-.99,6.13-.95,3.35.04,3.7,2.99,5.92.52.94-1.05-2.66-5.11-6.01-5.25Z"/>
    <path d="M415.45,220.75c-1.28,1.76-2.18,3.39-2.79,4.96.7,2.05,1.05,3.6,3.46,4.01,5.11.88,2.99-13.98-.66-8.97Z"/>
    <path d="M469.56,196.29l.35-.32.41-.23c2.19-1.22,4.55-2.47,7.28-3.87-.14-.03-.28-.06-.43-.1-5.85-1.55-6.22-6.08-10.2-4.6-4.17,1.55-2.79,6.48,1.57,9.85-.6.32-1.2.65-1.78.97.98-.36,1.92-.93,2.79-1.71Z"/>
    <path d="M673.3,267.8c1.34,1.38,2.36-.4,5.05.11,2.68.51,2.55,2.92,4.67,1.25.9-.71-1.41-4.47-4.08-5.05-3.93-.86-7.57,1.7-5.64,3.69Z"/>
    <path d="M417.33,273.19c6.7,4.16,11.64-7.49,6.86-17.91-1.94-4.23-6.97-7.41-10.99-8.65.1,1.13.18,2.28.2,3.48.04,2.11.02,4.89-.06,7.85.23.39.44.8.64,1.26,3.03,7.15-1.29,11.09,3.35,13.96Z"/>
    <path d="M411.63,234.38c.14,1.69.41,3.47.71,5.43.23,1.52.48,3.13.67,4.85.52.41,1.01.58,1.33.38,2.8-1.77-.05-2.61.48-5.92.52-3.31,3-3.77,1.96-5.89-1.05-2.13-3.52-1.24-5.15,1.14Z"/>
    <path d="M172.49,358.44c-6.62-4.3-11.79,7.25-7.23,17.76,3.09,7.12,14.86,11.53,16.34,8.62,3.49-6.84-3.17-5.14-6.05-12.35-2.88-7.21,1.52-11.06-3.06-14.03Z"/>
    <path d="M544.74,122.63c-1.53-.99-2.73,1.68-1.67,4.11.71,1.65,3.44,2.66,3.78,1.99.81-1.58-.73-1.19-1.4-2.86s.35-2.56-.71-3.24Z"/>
    <path d="M693.43,263.02c.13-4.25-4.29-3.15-7.62-8.19-3.34-5.05.71-8.56-5.22-9.36-2.52-.34-4.93,9.15-1.74,14.29,4.7,7.6,14.4,9.41,14.59,3.27Z"/>
    <path d="M691.52,268.54c-4.95-.21-8.8,3.67-6.04,5.67,1.91,1.38,2.78-.99,6.13-.95,3.35.04,3.7,2.99,5.92.52.94-1.05-2.66-5.11-6.01-5.25Z"/>
    <path d="M433.52,163.12c.14-.07.26-.14.41-.2.35-.14.86-.32,1.59-.57,2.84-.96,3.64-1.17,5.57-1.6.07-.02.14-.03.23-.05l.55-.12c-1.62-1.77-3.81-2.28-6.18-.74-1.49.97-2.02,2.03-2.17,3.27Z"/>
    <path d="M431.75,151.85c1.26,5.31,6.36,2.47,12.18,7.61.21.18.39.36.57.55l3.47-.77-1.1,4.18c1.66,3.67,1.01,6.62,6.66,5.89,3.23-.42,3.06-12.98-2.61-18.29-8.36-7.84-20.98-6.86-19.16.82Z"/>
    <path d="M412.95,183.61c.13-4.25-4.29-3.15-7.62-8.19-1.4-2.12-1.5-3.96-1.58-5.45-.89,4.99-.95,10.13-.57,15.33,4.58,3.02,9.64,2.75,9.78-1.68Z"/>
    <path d="M406.72,143.53c1.34,1.38,2.36-.4,5.05.11,2.68.51,2.55,2.92,4.67,1.25.9-.71-1.41-4.47-4.08-5.05-3.93-.86-7.57,1.7-5.64,3.69Z"/>
    <path d="M135.84,286.74c-.31,2.02,1.23,1.04,2.56,2.62,1.33,1.59.54,2.92,1.94,3.3,2.03.54,2.38-2.82.35-5.1-1.38-1.55-4.72-1.68-4.85-.82Z"/>
    <path d="M137.36,266.12c-5.93.8-1.88,4.32-5.22,9.36-3.34,5.05-7.75,3.94-7.62,8.19.19,6.15,9.88,4.33,14.59-3.27,3.19-5.15.77-14.63-1.74-14.29Z"/>
    <path d="M177.59,282.03l-1.63-1.85c-.18-.02-.34-.05-.52-.07l1.72,1.96s-.05.06-.07.1c.17-.04.34-.07.51-.13Z"/>
    <path d="M201.24,339.67c-.66.95-1.33,1.92-2.01,2.77.86.24,1.49.42,2.22-.32.82-.84.63-1.79-.15-2.53-.02.03-.04.06-.06.08Z"/>
    <path d="M174.51,266.54c-3.88-5.5-11.64,2.01-11.35,11.79.02.63.13,1.27.28,1.9,1.39.32,2.83.6,4.32.8l.36.05.35.11c1.54.49,3.11.81,4.69,1-.38-.98-.65-2.12-.65-3.56,0-6.63,4.7-8.28,2.01-12.09Z"/>
    <path d="M176.58,220.66c-5.67,5.18,1.16,5.93,1.33,13.69.16,7.76-5.31,9.82-2.07,14.21,4.68,6.35,13.59-2.64,13.01-14.09-.39-7.76-9.86-16.01-12.27-13.81Z"/>
    <path d="M260.54,238.45c-3.15,4.46,2.36,6.4,2.36,14.17,0,2.49-.7,4.27-1.46,5.71.51.42,1.01.86,1.48,1.32,1.51,1.49,2.79,3.22,3.96,5.06,3.29-2.68,6.83-7.68,6.97-12.43.34-11.46-8.75-20.26-13.3-13.82Z"/>
    <path d="M273.21,264.18c-2.39-1.55-4.57-1.02-6.2.76,1.55,2.49,2.88,5.18,4.18,7.83,1.84,3.75,3.58,7.3,5.78,9.99,1.77,2.16,3.89,3.92,6.24,5.41.34-1.73-.38-2.67-1.53-3.63-.87-5.16-3.56-9.32-6.46-11.03-.22-4.32,1.44-7.07-2.02-9.32Z"/>
    <path d="M201.34,313.38c4.32-.04,6.85-1.12,10.33-2.61.33-.14.67-.29,1.01-.43,1.25-3.45,3.24-5.36,2.06-8.05-.12-.27.08-.57.37-.58.52-.01,1.05-.01,1.58,0,.24,0,.44.22.42.46-.2,2.75-1.1,4.72-1.87,6.37-.16.34.18.69.53.56,1.1-.41,2.29-.81,3.61-1.18,2.66-.75,5.35-1.31,8.03-1.74.17-.03.31-.16.35-.33.13-.66.23-1.35.29-2.04.02-.26.27-.44.52-.37.68.19,1.37.39,2.08.61.18.06.3.24.29.43-.02.42-.03.82-.03,1.21,1.41-.17,2.82-.32,4.22-.44-5.8-2.37-13.24-3.69-21.53-3.69-2.36,0-4.66.11-6.86.34-1.8.18-3.76,1.55-2.51,1.28-1.75,2.49-3.05,5.91-3.32,9.75.18.18.27.28.44.47Z"/>
    <path d="M203.51,215.43c-3.88,6.73-.4,18.8,2.81,18.26,7.57-1.27,2.24-5.61,6.31-12.22,1.4-2.26,2.98-3.6,4.45-4.61.02.54.06,1.09.1,1.64-2.31,2.12-3.45,6.08-2.31,6.61,1.79.84,2.28.24,2.96-.7.07.49.14.98.22,1.46.6.04,1.76-.1,2.91-.14-.89,3.63,2.38,3.94,5.12,7.07.24,2.42.23,5.14.19,7.8-.53-7.7-9.86-15.81-12.25-13.63-5.67,5.18,1.16,5.93,1.33,13.69.16,7.76-5.31,9.82-2.07,14.21,4.25,5.77,11.99-1.12,12.94-11.01-.03,2.25-.02,4.32.19,5.94.09.82.23,1.62.4,2.38-.67.24-1.34.58-1.96,1.05-2.28,1.68-2.88,6.22-1.72,6.51,2.72.68,1.57-1.55,3.89-3.16.38-.26.74-.45,1.09-.58.36.78.75,1.53,1.19,2.25-1.92,2.82-3.26,6.79-3.24,11.19.55.11,1.09.22,1.61.32,2.85.57,5.31,1.06,7.18,1.61.79.23,1.55.5,2.3.78-.09-.58-.16-1.19-.16-1.86,0-1.2.14-2.24.35-3.19.82.72,1.66,1.42,2.49,2.13.31,1.81.99,3.44,1.86,4.82,1.23.57,2.44,1.16,3.62,1.75,1.01.5,2,.99,2.98,1.45-1.98-2.99-5.04-5.56-8.36-8.35-5.78-4.86-12.32-10.37-13.33-19.39-.24-2.18-.2-4.89-.15-7.75.09-5.27.22-13.24-2.15-15.65-.33-.34-.83-.69-1.99-.69-.08,0-.17,0-.25,0l-3.79.16-.53-3.75-.04-.25-.05-.33-.02-.13v-.13c-.03-.28-.08-.79-.12-1.34-.1-1.17-.17-1.96-.19-2.35-.04-.87-.05-1.69-.05-2.38v-1.47s.92-1.15.92-1.15c.46-.57.91-1.17,1.33-1.76l.74-1.04,1.19-.45.28-.11c-2.15-5.62-12.94-2.59-18.19,6.51Z"/>
    <path d="M198.03,199.68c-5.67,5.31-5.84,17.87-2.61,18.29,7.62.98,3.77-4.72,9.59-9.86,5.82-5.14,10.92-2.3,12.18-7.61,1.82-7.68-10.8-8.66-19.16-.82Z"/>
    <path d="M212.97,184.1c1.13,7.68,11.35,14.99,13.54,12.57,5.15-5.7-1.73-5.79-2.63-13.5-.9-7.71,4.34-10.28.7-14.34-5.27-5.87-13.27,3.93-11.6,15.27Z"/>
    <path d="M186.79,208.65c-.42,3.33,2.98,7.56,4.17,6.8,2.8-1.77-.05-2.61.48-5.92.52-3.31,3-3.77,1.96-5.89-1.51-3.06-5.98.09-6.6,5Z"/>
    <path d="M184.29,217.41c-3.35,6.91,3.28,5.07,6.31,12.22,3.03,7.15-1.29,11.09,3.35,13.96,6.7,4.16,11.64-7.49,6.86-17.91-3.24-7.06-15.09-11.22-16.51-8.28Z"/>
    <path d="M212.31,239.13c-4.55-6.45-13.64,2.36-13.3,13.82.02.7.12,1.41.28,2.12l1.81-1.81,2.96,2.88c.65.63,1.3,1.26,1.94,1.88l.49.47,1.2,1.16.07,1.67c.03.65.13,1.01.21,1.2.21.49,1.04,1.69,4.33,3.13,3.18-3.93-2.35-5.35-2.35-12.36,0-7.77,5.51-9.71,2.36-14.17Z"/>
    <path d="M128.66,215.88c-4.49,3.96.83,4.63.86,10.69.03,6.05-4.26,7.58-1.79,11.05,3.57,5.01,10.62-1.89,10.32-10.82-.21-6.05-7.48-12.6-9.39-10.92Z"/>
    <path d="M123.45,221.26c-5.93.8-1.88,4.32-5.22,9.36-3.34,5.05-7.75,3.94-7.62,8.19.19,6.15,9.88,4.33,14.59-3.27,3.19-5.15.77-14.63-1.74-14.29Z"/>
    <path d="M106.5,249.59c2.21,2.47,2.56-.48,5.92-.52s4.22,2.33,6.13.95c2.76-2-1.09-5.88-6.04-5.67-3.35.14-6.95,4.2-6.01,5.25Z"/>
    <path d="M480.86,399.17c4.68,6.35,13.59-2.64,13.01-14.09-.39-7.76-9.86-16.01-12.27-13.81-5.67,5.18,1.16,5.93,1.33,13.69.16,7.76-5.31,9.82-2.07,14.21Z"/>
    <path d="M125.1,239.9c-2.67.58-4.98,4.34-4.08,5.05,2.12,1.67,1.99-.75,4.67-1.25,2.68-.51,3.71,1.27,5.05-.11,1.93-1.99-1.7-4.56-5.64-3.69Z"/>
    <path d="M182.35,278.82c-.17-2.12-1.5-.75-3.23-2.03-1.73-1.28-1.25-2.83-2.77-2.87-2.19-.05-1.73,3.43.88,5.25,1.77,1.23,5.19.56,5.12-.35Z"/>
    <path d="M211.61,192.04c3.49-6.84-3.17-5.14-6.05-12.35-2.88-7.21,1.52-11.06-3.06-14.03-6.62-4.3-11.79,7.25-7.23,17.76,3.09,7.12,14.86,11.53,16.34,8.62Z"/>
    <path d="M291.4,358.97c-1.11-.17-2.36.17-3.41.71,2.52,1.39,4.79,3.21,6.94,5.13.17-.03.36-.07.56-.17,2.61-1.21.04-5.05-4.09-5.67Z"/>
    <path d="M320.93,377.84c.94.39,1.86.79,2.75,1.21,0,0,0,0,0,0,0,0,0,0,0,0,.13.06.26.12.39.18-4.48-11.45-16.83-25.49-26.28-30.46-2.96-1.56-6.15-3.29-9.53-5.13-6.86-3.73-13.94-7.59-19.72-10.26-7.29-3.38-18.52-5.39-30.04-5.39-14.58,0-27.6,3.16-34.8,8.44-.41.34-1.3,1.57-2.01,2.59,1.88-1.8,4.03-3.36,6.44-4.67-1.32,1.89-2.4,4.26-3,6.93,7.2-4.78,7.75-5,9.29-5,.85,0,1.66.25,2.35.7.84-.18,1.68-.34,2.52-.49.58-1.33.7-2.62-.32-4.34-.39-.65-.83-1.17-1.31-1.55,1.75-.48,3.55-.89,5.39-1.22,2.55,2.36,3.38,4.87,4.94,6.21.57-.02,1.15-.05,1.72-.05,1.37,0,2.72.06,4.05.16,2.03-1.39,2.35-4.31,1.16-7.51,1.26-.03,2.52-.03,3.77-.01,1.49.9,2.79,1.18,3.5.55.16-.14.31-.28.46-.42,1.73.1,3.45.24,5.15.43.46,1.13.8,2.47.83,4.13.05,2.51-.49,4.41-1.12,5.99,2.86,1.17,6.23,2.74,9.85,4.54,1.49-2.83,2.42-6.47,2.22-10.41-.04-.75-.16-1.5-.35-2.25,1.05.26,2.09.53,3.08.82.81,5.06-1.48,8.17,2.36,10.55,4.07,2.53,7.48-.78,8.47-6.09.74.36,1.48.73,2.22,1.09-2.89,2.38-5.32,7.14-5.59,12.71,3.66,1.95,7.29,3.92,10.67,5.76.37.2.72.39,1.08.58-.48-1.18-.84-2.58-.84-4.35,0-5.3,2.56-7.89,3.19-10.41.63.33,1.26.67,1.9,1-1.05,5.21-4.51,7.27-1.78,10.97,3.37,4.57,8.93,1.19,11.56-5.33,1.17.74,2.34,1.5,3.48,2.28-1.13.14-2.37.58-3.48,1.41-2.28,1.68-2.88,6.22-1.72,6.51,2.72.68,1.57-1.55,3.89-3.16,2.33-1.61,4.05-.37,4.73-2.24,0-.03.01-.05.02-.07.28.21.56.42.84.64-3.22,2.03-6.12,7.05-6.51,13.07.19.18.39.36.58.54,2.57,2.37,4.99,4.61,7.29,5.78,1.25.64,2.78,1.15,4.44,1.61-.74-1.42-1.42-3.18-1.42-5.62,0-4.48,1.83-7.02,2.77-9.22.47.46.92.92,1.38,1.39-.96,1.69-1.58,3.54-1.49,5.28.26,4.55,2.82,8.31,5.62,9.92.95.26,1.89.54,2.81.86,1.25.02,2.4-.5,3.26-1.68.18.36.34.72.51,1.09-.45.21-.87.48-1.18.83-.17.19-.31.38-.45.58Z"/>
    <path d="M117.52,261.09c.23,7.76,9.53,16.21,11.98,14.06,5.78-5.06-1.04-5.95-1.04-13.71s5.51-9.71,2.36-14.17c-4.55-6.45-13.64,2.36-13.3,13.82Z"/>
    <path d="M379.5,154.43l1.73.05,1.2,1.83c.11.17.22.34.33.5.17-1.03.62-2.02,1.33-2.9.52-.65,1.17-1.2,1.9-1.69.56-3.38.16-7.52-1.66-11.49-3.24-7.06-15.09-11.22-16.51-8.28-3.35,6.91,3.28,5.07,6.31,12.22,1.45,3.44,1.22,6.12,1.09,8.31,2.18.03,3.54.91,4.29,1.43Z"/>
    <path d="M408.88,295.07c.17-1,.24-2.05.18-3.13-.01-.24-.04-.48-.08-.72-.13,1.32-.17,2.6-.1,3.86Z"/>
    <path d="M403.44,188.46c.39,3.84.98,7.69,1.6,11.51.06.18.13.35.18.55,0,.02,0,.04.01.06.77-.65,1.52-1.29,2.1-1.79,2.23-1.92,3.59-3.07,4.55-3.69-2.07-4.29-5.76-6.94-8.44-6.63Z"/>
    <path d="M399.83,149.01c.62,0,1.2.02,1.75.05.31-1.24.47-2.49.41-3.71-.58-12.15-10.93-20.72-15.21-13.53-2.96,4.98,3.03,6.58,3.67,14.8.11,1.43-.02,2.65-.27,3.73,4.25-1.28,8.88-1.34,9.66-1.34Z"/>
    <path d="M370.84,153.88c.47-.17.92-.31,1.36-.44.17-1.26.25-2.57.18-3.92-.39-7.76-9.86-16.01-12.27-13.81-5.67,5.18,1.17,5.93,1.33,13.69.16,7.76-5.31,9.82-2.07,14.21,1.6,2.17,3.7,2.55,5.74,1.65.71,1.39,1.48,2.74,2.29,4.06-.2-.05-.4-.09-.6-.12-2.8-.42-6.43,2.37-5.82,3.39,1.44,2.4,2.2.01,4.99.52,2.79.5,3.12,2.61,4.93,1.77.02,0,.03-.02.05-.03.42.64.83,1.29,1.23,1.93-.04.63-.05,1.26-.03,1.91.06,1.87.64,3.78,1.52,5.57l-.42,1.77c-1.68-.75-4.31-.8-6.78.38-3.18,1.51-5,6.92-3.65,7.55,3.16,1.48,2.28-1.52,5.51-2.94,1.61-.71,2.86-.58,3.88-.54l-.26,1.12c-1.13,0-1.96.3-2.27.95-1.63,3.37-.89,4.66.65,5.93l-.4,1.68c-2.44-2.86-5.31-4.77-7.02-4.68.25.3.51.6.78.91,2.33,2.61,4.43,4.26,6.03,5.19l4.97-21.08c-1.13-2.49-2.74-4.84-4.44-7.3-1.63-2.37-3.32-4.82-4.68-7.57-.34-.68-.74-1.66-1.35-3.26l-1.39-3.68,2.7-1.21c1.03-1.7,2.85-2.67,5.33-3.58Z"/>
    <path d="M183,189.11c5.49,5.49,2.97,10.76,8.35,11.68,7.78,1.34,7.97-11.32-.37-19.17-5.65-5.32-18.2-4.72-18.42-1.46-.51,7.66,4.94,3.47,10.44,8.96Z"/>
    <path d="M168.67,198.73c5.78-5.06-1.04-5.95-1.04-13.71s5.51-9.71,2.36-14.17c-4.55-6.45-13.64,2.36-13.3,13.82.23,7.76,9.53,16.21,11.98,14.06Z"/>
    <path d="M220.8,392.22c-4.04-6.78-13.78,1.29-14.33,12.74-.37,7.76,8.24,16.9,10.85,14.95,6.15-4.59-.58-6.01.03-13.75.6-7.74,6.25-9.25,3.45-13.94Z"/>
    <path d="M108.35,232.87c3.49-6.84-3.17-5.14-6.05-12.35-2.88-7.21,1.52-11.06-3.06-14.03-6.62-4.3-11.79,7.25-7.23,17.76,3.09,7.12,14.86,11.53,16.34,8.62Z"/>
    <path d="M181.76,174.84c4.81.55,5.62,4.1,8.61,2.47,4.32-2.36-.5-8.62-7.62-9.22-4.83-.41-10.72,4.75-9.56,6.43,2.72,3.94,3.76-.22,8.57.33Z"/>
    <path d="M156.79,282.23l.25-2.25c-6.64-3.3-17.8.18-17.24,3.23,1.35,7.32,5.47,2.08,11.94,5.92.6.36,1.12.74,1.61,1.12-.29,2.75.14,5.38,1.79,6.38l.03.3c.54.7,1.15,1.34,1.83,1.89-5.84-1.77-9.91,8.79-5.71,18.48.52,1.2,1.28,2.31,2.2,3.33-4.57,2.55-2.24,12.66,5.87,18.32,3.19,2.23,7.88,2.73,11.73,2.27.1,1.01.43,2.09.94,3.18-4.07-.77-10.09.85-14.78,5.24-5.67,5.31-5.84,17.87-2.61,18.29,7.62.98,3.77-4.72,9.59-9.86,5.82-5.14,10.92-2.3,12.18-7.61.41-1.74.08-3.13-.77-4.16.42.41.92.74,1.47,1.01-.09.34-.08.63.09.81,1.55,1.73,2.19.8,3.58.08,1.44.1,3,0,4.53-.24,1.69.59,2.53,1.61,3.94.59.74-.53.99-1.2.89-1.89.49-.19.94-.39,1.38-.6-.29.09-.62.19-1.06.3-.96.24-2.42.55-4.47.96-2.04.4-3.67.6-4.98.6-2.46,0-4.31-.75-5.49-2.22-.31-.39-.55-.79-.72-1.2h-2.37s-1.02-2.72-1.02-2.72c-1-2.68.93-4.45,1.66-5.11.43-.39,1.11-.99,2.14-1.89,3.1-2.7,6.65-4.67,9.98-6.17,0-.01.01-.02.02-.03.01,0,.02,0,.03,0,.32-.14.64-.29.95-.42-4.93-1.94-10.57-4.65-14.74-7.56l-.38-.26-.31-.34c-.66-.71-1.38-1.3-2.14-1.74l-.46-.27-.38-.37c-1.85-1.82-2.95-3.61-3.35-5.46-.78-3.58,1.81-8.07,5.22-9.07l1.02-.3,1.04.22c1.24.27,2.42.6,3.55.98.21-.58.44-1.12.67-1.62.55.1,1.11.21,1.66.32-.31.66-.55,1.27-.73,1.87,2.85,1.09,5.46,2.43,8,3.76.64.33,1.27.66,1.9.98.6-1.58,1.33-2.85,1.83-4.02.32.03.63.04.95.05-2.24-.29-4.71-1.02-7.31-1.78-2.48-.73-5.04-1.49-6.85-1.66-4.69-.42-7.13-.95-8.74-1.29-1.1-.24-1.56-.33-2.17-.33-.11,0-.22,0-.33,0-.46.02-.83.05-1.14.08-.43.03-.83.07-1.25.07-2.68,0-4.1-1.46-5.36-2.75l-1.03-1.06-.03-.3-.9-1.02c-1.25-1.41-1.17-2.1-.71-5.94.43-3.59,1.32-5.7,3.07-7.13ZM174.61,344.79c.18.43.43.8.71,1.14-.5-.48-1.12-.86-1.85-1.14h1.14ZM164.29,300.57c.16.03.33.07.5.1-.92,2.38-1.45,5.14-1.37,8.08.21,7.13,8.07,14.83,11.25,14.38.66.37,1.34.73,2.02,1.08-3.03,3.71-6.66,3.7-6.16,7.72.02.18.08.33.11.49-1.37-.3-2.87-.86-4.48-2.05-1.8-1.34-2.93-2.75-3.77-4.1,2.55.79,4.66.77,5.23-.36,3.49-6.84-3.17-5.14-6.05-12.35-2.66-6.67.89-10.46-2.19-13.35,1.45.57,3.1.75,4.9.36Z"/>
    <path d="M207.51,389.46c-1.95-5.53-10.23-1.07-12.31,7.19-1.41,5.6,3.53,13.52,5.72,12.48,5.16-2.45.46-4.47,2.03-10.02,1.57-5.55,5.91-5.83,4.56-9.65Z"/>
    <path d="M150.09,293.7c-4.04-6.78-13.78,1.29-14.33,12.74-.37,7.76,8.24,16.9,10.85,14.95,6.15-4.59-.58-6.01.03-13.75.6-7.74,6.25-9.25,3.45-13.94Z"/>
    <path d="M136.8,290.94c-1.95-5.53-10.23-1.07-12.31,7.19-1.41,5.6,3.53,13.52,5.72,12.48,5.16-2.45.46-4.47,2.03-10.02,1.57-5.55,5.91-5.83,4.56-9.65Z"/>
    <path d="M231.25,189.31c5.06-2.24.56-4.32,2.23-9.66.31-1,.72-1.82,1.15-2.51.16-.19.3-.4.43-.62,1.84-2.49,4-3.28,3.09-6.1-.04-.14-.11-.24-.16-.37.44-.59.98-1.18,1.64-1.77,4.6-4.06,8.74-3.15,10.9-5.21-.7,1.29-.95,3.04-.55,5.33-3.67.53-7.82,2.13-10.23,4.94-7.23,8.43-5.73,20.6,1.62,18.51,5.09-1.45,2.11-6.26,6.84-12.12.88-1.09,1.79-1.86,2.69-2.43.46.5.86,1.05,1.18,1.65-1.73,1.39-3.21,3.07-4.08,4.95-4.78,10.42.16,22.07,6.86,17.91,3.69-2.29,1.72-5.25,2.28-9.97.54.69,1.12,1.38,1.79,2.04.3.31.65.61,1.03.92.41,8.24,5.58,14.67,9.9,14.03.12.15.24.29.36.44.68.69,1.38,1.36,2.11,2.02-1.16,2.03-1.7,3.54,1.41,6.27.88.77,2.66.17,4.57-1.28,1.35,1.05,2.72,2.09,4.09,3.13-.58,1.03-.55,2.36.61,4.65.6,1.18,2.91,1.15,5.64.22.42.35.84.7,1.26,1.05-3.12.4-5.24.11-5.64,5.04-.2,2.55,7.32,4.59,13.65,3.21,1.41,1.9,2.6,3.93,3.49,6.12-7.97-4.89-17.35-3.28-15.76,3.41,1.26,5.31,6.36,2.47,12.18,7.61,2.34,2.06,3.11,4.21,3.7,5.99-3.03-2.82-7.9-5.46-12.3-5.22-11.44.63-19.46,10.43-12.65,14.42,4.71,2.76,6.18-2.89,13.92-3.55,7.74-.65,9.2,6.07,13.75-.12.32-.43.33-1.03.1-1.72.05.01.1.03.15.04.45,2.14.98,4.14,1.59,5.99-3.14-.33-7.76,3.37-9.36,9.06-1.51,5.39,3.07,13.2,5.22,12.25,5.06-2.24.56-4.32,2.23-9.66,1.04-3.31,3.05-4.63,4.14-6.04.25.52.5,1.03.76,1.53-5.61,8.25-3.85,18.65,3,16.7,3.41-.97,3.2-3.46,4.12-6.76,1.75,1.87,3.56,3.52,5.35,5.06-2.47.51-4.37,3.33-5.07,7.14-.24-.22-.51-.44-.83-.68-1.15-.84-3.74,1.05-5.73,3.93.06.03.13.05.19.08,1.95.87,4,1.95,6.07,3.12.06-.2.13-.41.2-.59.03.26.08.52.13.78,2.18,1.25,4.4,2.59,6.58,3.92,4.24,2.59,8.61,5.24,12.12,6.72.11-1.07-.2-1.83-.79-2.5.96-1.64,1.48-2.83-1-5.02-.67-.59-2.02-.15-3.48.93-.04-.06-.09-.11-.14-.17,1.05-.7,1.79-1.55,2.05-2.4,1.42,1.64,3.25,3.03,5.13,4.1.18,1.16.26,2.4.24,3.73-.34.44-.65,1.04-.92,1.75.17.06.35.14.52.2.15.05.3.1.44.15.02-.5.05-1.01.07-1.51.11-2.28.22-4.44-.05-6.21-.81-5.16-7.81-11.16-13.99-16.45-4.18-3.58-8.12-6.96-10.76-10.43-5.8-7.61-7.61-19.36-9.22-29.72-.6-3.88-1.17-7.54-1.88-10.6-1.67-7.11-10.58-13.67-18.44-19.46-4.86-3.57-9.44-6.95-12.58-10.52-2.24-2.55-3.1-5.53-3.73-7.71-.22-.77-.53-1.83-.72-2.13-.53-.78-1.96-1.8-3.23-2.7-1.23-.87-2.49-1.77-3.61-2.85-1.23-1.19-2.17-2.5-2.99-3.65-.6-.83-1.16-1.62-1.67-2.12l-1.56-1.52.35-2.15c.47-2.94-.62-6.05-2.65-7.56l-1.63-1.21-.06-2.03c0-.27-.02-.6-.03-.94v-.2s-.1-2.26-.1-2.26l1.54-1.1c-.6-2.77-.31-4.98.88-6.69.05-.07.1-.13.15-.19,0,0-.01.01-.02.02.19-.37.36-.79.48-1.3,1.82-7.68-10.8-8.66-19.16-.82-3.36,3.15-4.79,8.84-4.72,13.04-.79,1.22-1.46,2.62-1.89,4.17-1.51,5.39,3.07,13.2,5.22,12.25ZM327.38,293.55c.27.23.53.45.79.68.18,2.13.7,4.37,1.66,6.57.03.07.06.13.09.2-.76-.13-1.44.24-2.3.66-.87-3.43-.22-6.02-.24-8.1Z"/>
    <path d="M273.13,221.8c-3.34-5.05.71-8.56-5.22-9.36-2.52-.34-4.93,9.15-1.74,14.29,4.7,7.6,14.4,9.41,14.59,3.27.13-4.25-4.29-3.15-7.62-8.19Z"/>
    <path d="M208.92,178.25c5.48-.77,1.72-4,4.79-8.68,3.07-4.68,7.16-3.67,7.02-7.6-.2-5.68-9.15-3.97-13.48,3.07-2.93,4.77-.66,13.53,1.66,13.21Z"/>
    <path d="M224.24,207.95l1.31-.5,1.86,1.47c2.85,2.26,5.87,4.33,8.83,6.26-.61-1.31-1.1-2.9-1.1-4.99,0-7.77,5.51-9.71,2.36-14.17-4.29-6.08-12.62,1.42-13.26,11.92Z"/>
    <path d="M159.49,216.15c.23,7.76,9.53,16.21,11.98,14.06,5.78-5.06-1.04-5.95-1.04-13.71s5.51-9.71,2.36-14.17c-4.55-6.45-13.64,2.36-13.3,13.82Z"/>
    <path d="M244.95,196.61c-2.05-1.5-8.7,5.67-8.37,11.72.22,4.01,1.89,7.47,3.94,9.59,1.21.76,2.4,1.48,3.48,2.13,1.48.3,2.87-.24,3.82-1.88,2.15-3.67-2.26-4.81-2.78-10.84-.52-6.03,4.72-7.18-.11-10.72Z"/>
    <path d="M262.7,207.05c-1.91-1.68-9.18,4.87-9.39,10.92-.12,3.57.94,6.82,2.48,9.11l5.57,3.32c.83-.18,1.61-.69,2.27-1.62,2.47-3.46-1.82-5-1.79-11.05.03-6.05,5.35-6.72.86-10.69Z"/>
    <path d="M260.62,234.77c1.34,1.38,2.36-.4,5.05.11,2.68.51,2.55,2.92,4.67,1.25.9-.71-1.41-4.47-4.08-5.05-3.93-.86-7.57,1.7-5.64,3.69Z"/>
    <path d="M185.68,262.35c-.27-5.43-6.91-11.22-8.6-9.68-3.97,3.63.82,4.15.93,9.59.11,5.44-3.72,6.88-1.45,9.96,3.28,4.45,9.52-1.85,9.12-9.87Z"/>
    <path d="M260.19,202.91c-2.16-1.53-3.1,1.13-6.86,1.13-3.76,0-4.18-3.31-6.64-.52-1.04,1.19,3.03,5.7,6.79,5.82,5.55.18,9.82-4.21,6.71-6.42Z"/>
    <path d="M173.44,216.74c4.68,6.35,13.59-2.64,13.01-14.09-.39-7.76-9.86-16.01-12.27-13.81-5.67,5.18,1.17,5.93,1.33,13.69.16,7.76-5.31,9.82-2.07,14.21Z"/>
    <path d="M83.94,269.38c7.62.98,3.77-4.72,9.59-9.86,5.82-5.14,10.92-2.3,12.18-7.61,1.82-7.68-10.8-8.66-19.16-.82-5.67,5.31-5.84,17.87-2.61,18.29Z"/>
    <path d="M101.77,259.91c-6.62-4.3-11.79,7.25-7.23,17.76,3.09,7.12,14.86,11.53,16.34,8.62,3.49-6.84-3.17-5.14-6.05-12.35-2.88-7.21,1.52-11.06-3.06-14.03Z"/>
    <path d="M122.69,283.65c-4.55-6.45-13.64,2.36-13.3,13.82.23,7.76,9.53,16.21,11.98,14.06,5.78-5.06-1.04-5.95-1.04-13.71s5.51-9.71,2.36-14.17Z"/>
    <path d="M106.43,271.21c3.09,7.12,14.86,11.53,16.34,8.62,3.49-6.84-3.17-5.14-6.05-12.35-2.88-7.21,1.52-11.06-3.06-14.03-6.62-4.3-11.79,7.25-7.23,17.76Z"/>
    <path d="M118.39,215.6c4.68,6.35,13.59-2.64,13.01-14.09-.39-7.76-9.86-16.01-12.27-13.81-5.67,5.18,1.16,5.93,1.33,13.69.16,7.76-5.31,9.82-2.07,14.21Z"/>
    <path d="M145.98,183.55c4.83-.32,6.27,3.03,8.91.89,3.83-3.1-2.03-8.39-9.14-7.71-4.82.46-9.7,6.59-8.26,8.03,3.38,3.39,3.66-.89,8.49-1.21Z"/>
    <path d="M133.15,196.67c3.03,7.15-1.29,11.09,3.35,13.96,6.7,4.16,11.64-7.49,6.86-17.91-3.24-7.06-15.09-11.22-16.51-8.28-3.35,6.91,3.28,5.07,6.31,12.22Z"/>
    <path d="M116.12,229.78c5.78-5.06-1.04-5.95-1.04-13.71s5.51-9.71,2.36-14.17c-4.55-6.45-13.64,2.36-13.3,13.82.23,7.76,9.53,16.21,11.98,14.06Z"/>
    <path d="M88.65,240.41c6.37,4.44,18.69,2.02,18.43-1.23-.61-7.66-5.4-2.71-11.63-7.34-6.23-4.63-4.51-10.21-9.96-10.34-7.89-.19-6.24,12.36,3.16,18.92Z"/>
    <path d="M147.56,213.94c4.68,6.35,13.59-2.64,13.01-14.09-.39-7.76-9.86-16.01-12.27-13.81-5.67,5.18,1.16,5.93,1.33,13.69.16,7.76-5.31,9.82-2.07,14.21Z"/>
    <path d="M139.25,213.21c-3.76,0-4.71-2.65-6.86-1.13-3.12,2.21,1.16,6.6,6.71,6.42,3.76-.12,7.84-4.63,6.79-5.82-2.46-2.79-2.88.51-6.64.52Z"/>
    <path d="M131.83,255.16c-3.17-.07-2.5,4.96,1.28,7.59,2.56,1.78,7.5.8,7.4-.5-.25-3.07-2.17-1.09-4.67-2.94-2.5-1.86-1.81-4.1-4-4.15Z"/>
    <path d="M163.52,270.3c-2.66-5.36-4.69-.4-10.54-1.94-5.85-1.55-6.22-6.08-10.2-4.6-5.76,2.15-.93,10.75,7.77,12.77,5.9,1.37,14.11-3.95,12.98-6.23Z"/>
    <path d="M193.64,261.6l.16-1.87,1.5-1.12c.44-.32.83-.64,1.21-.94-1.4-5.88,1.7-9.26-2.41-11.93-6.62-4.3-11.79,7.25-7.23,17.76,1.35,3.11,4.35,5.7,7.43,7.39.05.65.07,1.26.07,1.84-1.2-1.27-3.47-2.27-6.05-2.17-3.35.14-6.95,4.2-6.01,5.25,2.21,2.47,2.56-.48,5.92-.52,2.99-.04,4,1.83,5.54,1.26.44-1.06.66-2.19.69-3.28l.11-3.7c-.28-1.69-.59-3.3-.99-4.83l-.22-.82.12-.84c.06-.42.11-.88.16-1.5Z"/>
    <path d="M137.97,223.13c1.35,7.32,5.47,2.08,11.94,5.92,6.47,3.84,5.36,9.39,10.63,8.97,7.62-.6,4.78-12.53-4.93-17.91-6.58-3.65-18.21-.08-17.64,3.02Z"/>
    <path d="M161.59,248.68c.23,7.76,9.53,16.21,11.98,14.06,5.78-5.06-1.04-5.95-1.04-13.71s5.51-9.71,2.36-14.17c-4.55-6.45-13.64,2.36-13.3,13.82Z"/>
    <path d="M133.92,246.37c-.37,7.76,8.24,16.9,10.85,14.95,6.15-4.59-.58-6.01.03-13.75.6-7.74,6.25-9.25,3.45-13.94-4.04-6.78-13.78,1.29-14.33,12.74Z"/>
    <path d="M156.69,239.45c-6.62-4.3-11.79,7.25-7.23,17.76,3.09,7.12,14.86,11.53,16.34,8.62,3.49-6.84-3.17-5.14-6.05-12.35-2.88-7.21,1.52-11.06-3.06-14.03Z"/>
    <path d="M186.13,277.48c-.67,1.39-.91,2.4-.89,3.23l.87.08c.33.03.64.05.94.05,3.06,0,5.02-1.36,6.15-3.17-3.35-1.36-6.39-1.58-7.07-.18Z"/>
    <path d="M224.79,266.11c2.61-1.21.04-5.05-4.09-5.67-2.8-.42-6.43,2.37-5.82,3.39,1.44,2.4,2.2.01,4.99.52,2.79.5,3.12,2.61,4.93,1.77Z"/>
    <path d="M248.52,248.38c.35.59.79,1.15,1.3,1.68,3.17-3.15,6.31-8.57,6.07-13.47-.12-2.39-.61-4.65-1.36-6.67l-8.86-.82c-.86,6.45.29,14.96,2.85,19.28Z"/>
    <path d="M256.22,254.73c.74-.15,1.45-.4,2.04-.81,3.78-2.63,4.44-7.66,1.28-7.59-2.19.05-1.5,2.29-4,4.15-1.64,1.22-3.03.79-3.86,1.22,1.31,1.01,2.82,1.95,4.38,2.93.06.03.11.07.17.11Z"/>
    <path d="M197.97,313.18c.17-3.23.87-5.47-2.03-7.36-.51-.33-1.01-.56-1.5-.71-.98.2-1.91.33-2.78.35-.09,0-.17,0-.26,0-.09,0-.19,0-.29-.01-1.39.78-2.52,2.35-3.24,4.4,3.21,1.58,6.44,2.89,10.1,3.33Z"/>
    <path d="M249.86,219.52c.98.6,3.7-2.88,3.31-5.58-.56-3.99-4.23-6.5-5.43-4-.83,1.73,1.2,2.08,1.66,4.77.46,2.69-1.85,3.4.45,4.81Z"/>
    <path d="M278.94,240.24c3.35.04,3.7,2.99,5.92.52.94-1.05-2.66-5.11-6.01-5.25-4.95-.21-8.8,3.67-6.04,5.67,1.91,1.38,2.78-.99,6.13-.95Z"/>
    <path d="M215.05,266.92c1.05.71,2.18,1.09,3.36,1.09.12,0,.24,0,.36-.01l.63-.04.61.15c1.16.28,2.34.54,3.5.79-1.16-2.88-4.64-3.42-8.46-1.98Z"/>
    <path d="M220.54,199.21c-1.53-.99-2.73,1.68-1.67,4.11.72,1.65,3.44,2.66,3.78,1.99.81-1.58-.73-1.19-1.4-2.86-.67-1.67.35-2.56-.71-3.24Z"/>
    <path d="M548.39,133.27c.23,7.76,9.53,16.21,11.98,14.06,5.78-5.06-1.04-5.95-1.04-13.71s5.51-9.71,2.36-14.17c-4.55-6.45-13.64,2.36-13.3,13.82Z"/>
    <path d="M422.38,115.99c0,7.77-6.82,8.66-1.04,13.71,2.45,2.15,11.75-6.3,11.98-14.06.34-11.46-8.75-20.26-13.3-13.82-3.15,4.46,2.36,6.4,2.36,14.17Z"/>
    <path d="M406.06,101.44c-.58,11.45,8.33,20.44,13.01,14.09,3.24-4.39-2.23-6.45-2.07-14.21.16-7.76,7-8.51,1.33-13.69-2.41-2.2-11.88,6.05-12.27,13.81Z"/>
    <path d="M442.01,131.77c-6.23,4.63-11.02-.31-11.63,7.34-.26,3.25,12.06,5.68,18.43,1.23,9.4-6.56,11.05-19.11,3.16-18.92-5.46.13-3.73,5.71-9.96,10.34Z"/>
    <path d="M395.96,128.27c.98.6,3.7-2.88,3.31-5.58-.56-3.99-4.23-6.5-5.43-4-.83,1.73,1.2,2.08,1.66,4.77.46,2.69-1.85,3.4.45,4.81Z"/>
    <path d="M457.35,120.08c3.03,7.15-1.29,11.09,3.35,13.96,6.7,4.16,11.64-7.49,6.86-17.91-3.24-7.06-15.09-11.22-16.51-8.28-3.35,6.91,3.28,5.07,6.31,12.22Z"/>
    <path d="M471.76,137.36c4.68,6.35,13.59-2.64,13.01-14.09-.39-7.76-9.86-16.01-12.27-13.81-5.67,5.18,1.17,5.93,1.33,13.69.16,7.76-5.31,9.82-2.07,14.21Z"/>
    <path d="M332.57,179.78c1.27.69,2.65,1.58,4.19,2.7,1.16.85,1.98,1.85,2.56,2.95.02,0,.04,0,.06,0,0,.04,0,.08,0,.13.08.16.18.32.25.49-.09-1.14-.16-2.25-.23-3.33l-.17-2.53-.21.11s0,.08,0,.11c-1.24-.7-2.85-1.15-4.62-1.07-.62.03-1.25.2-1.85.45Z"/>
    <path d="M483.69,139.57c.23,7.76,9.53,16.21,11.98,14.06,5.78-5.06-1.04-5.95-1.04-13.71s5.51-9.71,2.36-14.17c-4.55-6.45-13.64,2.36-13.3,13.82Z"/>
    <path d="M470.18,106.97c4.83-.32,6.27,3.03,8.91.89,3.83-3.1-2.03-8.39-9.14-7.71-4.82.46-9.7,6.59-8.26,8.03,3.38,3.39,3.66-.89,8.49-1.21Z"/>
    <path d="M271.2,148.66c-2.67.58-4.98,4.34-4.08,5.05,2.12,1.67,1.99-.75,4.67-1.25,2.68-.51,3.71,1.27,5.05-.11,1.93-1.99-1.7-4.56-5.64-3.69Z"/>
    <path d="M269.55,130.02c-5.93.8-1.88,4.32-5.22,9.36-3.34,5.05-7.75,3.94-7.62,8.19.19,6.15,9.88,4.33,14.59-3.27,3.19-5.15.77-14.63-1.74-14.29Z"/>
    <path d="M497.64,140.15c4.68,6.35,13.59-2.64,13.01-14.09-.39-7.76-9.86-16.01-12.27-13.81-5.67,5.18,1.16,5.93,1.33,13.69.16,7.76-5.31,9.82-2.07,14.21Z"/>
    <path d="M270.79,159.43l1.65-.88,1.75.64.38.14c.31.11.61.22.92.34.68.26,1.36.53,2.04.8.52-1.42.59-2.75-.61-4.44-3.39-4.8-9.29-1.14-11.95,5.77,0,0-.01,0-.02,0h0c-.04.11-.07.22-.11.32.34.16.64.32.92.46l-.62-1.08,4.75-1.68c.3-.11.59-.23.89-.39Z"/>
    <path d="M349.18,175.3c-1.55-1.5-4.31-2.76-5.91-6.76-2.88-7.21,1.52-11.06-3.06-14.03-6.62-4.3-11.79,7.25-7.23,17.76,1.31,3.02,4.19,5.55,7.18,7.24l.61-.32c1.22-2.1,3.65-2.86,6.25-3.5.8-.19,1.51-.32,2.16-.4Z"/>
    <path d="M252.6,158.34c2.21,2.47,2.56-.48,5.92-.52,3.35-.04,4.22,2.33,6.13.95,2.76-2-1.09-5.88-6.04-5.67-3.35.14-6.95,4.2-6.01,5.25Z"/>
    <path d="M285.4,183.06c.02,1.29.77,2.97,1.99,4.45l-1.33-5.9c-.67.54-.66,1.14-.66,1.45Z"/>
    <path d="M319.63,191.82s.04.09.06.12c.05-.72.02-.65-.06-.12Z"/>
    <path d="M320.61,175.3c-3.88-5.5-11.64,2.01-11.35,11.79.18,6.02,6.72,12.49,9.5,12.26.02-.48.65-5.98.87-7.53-.56-1.15-1.03-2.55-1.03-4.44,0-6.63,4.7-8.28,2.01-12.09Z"/>
    <path d="M318.77,199.35s0,0,0,0c0,.04,0,.05,0,0Z"/>
    <path d="M294.35,142.39c-4.04-6.78-13.78,1.29-14.33,12.74-.12,2.43.66,5,1.85,7.32,1.7.82,3.23,1.61,4.64,2.4,1.08.61,2.26.91,3.5.91,1.07,0,2.17-.24,3.23-.68-.7-2.05-2.68-4.4-2.34-8.76.6-7.74,6.25-9.25,3.45-13.94Z"/>
    <path d="M565.57,115.26c5.09-1.45,2.11-6.26,6.84-12.12,4.72-5.86,10.41-2.38,9.13-9.71-.54-3.11-12.69-2.4-17.59,3.31-7.23,8.43-5.73,20.6,1.62,18.51Z"/>
    <path d="M688.96,240.26c0,7.77-6.82,8.66-1.04,13.71,2.45,2.15,11.75-6.3,11.98-14.06.34-11.46-8.75-20.26-13.3-13.82-3.15,4.46,2.36,6.4,2.36,14.17Z"/>
    <path d="M654.05,224.87c5.09-1.45,2.11-6.26,6.84-12.12,4.72-5.86,10.41-2.38,9.13-9.71-.54-3.11-12.69-2.4-17.59,3.31-7.23,8.43-5.73,20.6,1.62,18.51Z"/>
    <path d="M672.63,225.71c-.58,11.45,8.33,20.44,13.01,14.09,3.24-4.39-2.23-6.45-2.07-14.21.16-7.76,7-8.51,1.33-13.69-2.41-2.2-11.88,6.05-12.27,13.81Z"/>
    <path d="M660.68,216.92c-4.78,10.42.16,22.07,6.86,17.91,4.64-2.88.32-6.81,3.35-13.96,3.03-7.15,9.65-5.31,6.31-12.22-1.42-2.94-13.28,1.22-16.51,8.28Z"/>
    <path d="M708.59,256.03c-6.23,4.63-11.02-.31-11.63,7.34-.26,3.25,12.06,5.68,18.43,1.23,9.4-6.56,11.05-19.11,3.16-18.92-5.46.13-3.73,5.71-9.96,10.34Z"/>
    <path d="M533.12,101.67c5.48-.77,1.72-4,4.79-8.68,3.07-4.68,7.16-3.67,7.02-7.6-.2-5.68-9.15-3.97-13.48,3.07-2.93,4.77-.66,13.53,1.66,13.21Z"/>
    <path d="M686.52,285.29c.34-11.46-8.75-20.26-13.3-13.82-3.15,4.46,2.36,6.4,2.36,14.17s-6.82,8.66-1.04,13.71c2.45,2.15,11.75-6.3,11.98-14.06Z"/>
    <path d="M681.35,307.85c-3.15,4.46,2.36,6.4,2.36,14.17s-6.82,8.66-1.04,13.71c2.45,2.15,11.75-6.3,11.98-14.06.34-11.46-8.75-20.26-13.3-13.82Z"/>
    <path d="M702.26,284.11c-4.58,2.98-.18,6.82-3.06,14.03-2.88,7.21-9.54,5.51-6.05,12.35,1.48,2.91,13.25-1.5,16.34-8.62,4.56-10.51-.62-22.06-7.23-17.76Z"/>
    <path d="M698.33,276.11c1.26,5.31,6.36,2.47,12.18,7.61,5.82,5.14,1.97,10.84,9.59,9.86,3.23-.42,3.06-12.98-2.61-18.29-8.36-7.84-20.98-6.86-19.16.82Z"/>
    <path d="M274.76,124.64c-4.49,3.96.83,4.63.86,10.69.03,6.05-4.26,7.58-1.79,11.05,3.57,5.01,10.62-1.89,10.32-10.82-.21-6.05-7.48-12.6-9.39-10.92Z"/>
    <path d="M555.44,112.73c5.06-2.24.56-4.32,2.23-9.66,1.67-5.34,5.88-5.49,4.67-9.24-1.74-5.41-9.89-1.31-12.12,6.64-1.51,5.39,3.07,13.2,5.22,12.25Z"/>
    <path d="M572.2,107.31c-4.78,10.42.16,22.07,6.86,17.91,4.64-2.88.32-6.81,3.35-13.96,3.03-7.15,9.65-5.31,6.31-12.22-1.42-2.94-13.28,1.22-16.51,8.28Z"/>
    <path d="M537.17,107.52c1.13,7.68,11.35,14.99,13.54,12.57,5.15-5.7-1.73-5.79-2.63-13.5-.9-7.71,4.34-10.28.7-14.34-5.27-5.87-13.27,3.93-11.6,15.27Z"/>
    <path d="M625.65,217.12c1.13,7.68,11.35,14.99,13.54,12.57,5.15-5.7-1.73-5.79-2.63-13.5-.9-7.71,4.34-10.28.7-14.34-5.27-5.87-13.27,3.93-11.6,15.27Z"/>
    <path d="M620.11,146.43c-6.23,4.63-11.02-.31-11.63,7.34-.26,3.25,12.06,5.68,18.43,1.23,9.4-6.56,11.05-19.11,3.16-18.92-5.46.13-3.73,5.71-9.96,10.34Z"/>
    <path d="M643.92,222.34c5.06-2.24.56-4.32,2.23-9.66,1.67-5.34,5.88-5.49,4.67-9.24-1.74-5.41-9.89-1.31-12.12,6.64-1.51,5.39,3.07,13.2,5.22,12.25Z"/>
    <path d="M584.16,116.1c-.58,11.45,8.33,20.44,13.01,14.09,3.24-4.39-2.23-6.45-2.07-14.21.16-7.76,7-8.51,1.33-13.69-2.41-2.2-11.88,6.05-12.27,13.81Z"/>
    <path d="M600.48,130.65c0,7.77-6.82,8.66-1.04,13.71,2.45,2.15,11.75-6.3,11.98-14.06.34-11.46-8.75-20.26-13.3-13.82-3.15,4.46,2.36,6.4,2.36,14.17Z"/>
    <path d="M697.6,295.4c4.56-10.51-.62-22.06-7.23-17.76-4.58,2.98-.18,6.82-3.06,14.03-2.88,7.21-9.54,5.51-6.05,12.35,1.48,2.91,13.25-1.5,16.34-8.62Z"/>
    <path d="M292.08,92.31c4.83-.32,6.27,3.03,8.91.89,3.83-3.1-2.03-8.39-9.14-7.71-4.82.46-9.7,6.59-8.26,8.03,3.38,3.39,3.66-.89,8.49-1.21Z"/>
    <path d="M293.66,122.7c4.68,6.35,13.59-2.64,13.01-14.09-.39-7.76-9.86-16.01-12.27-13.81-5.67,5.18,1.17,5.93,1.33,13.69.16,7.76-5.31,9.82-2.07,14.21Z"/>
    <path d="M279.25,105.42c3.03,7.15-1.29,11.09,3.35,13.96,6.7,4.16,11.64-7.49,6.86-17.91-3.24-7.06-15.09-11.22-16.51-8.28-3.35,6.91,3.28,5.07,6.31,12.22Z"/>
    <path d="M264.49,124.36c4.68,6.35,13.59-2.64,13.01-14.09-.39-7.76-9.86-16.01-12.27-13.81-5.67,5.18,1.17,5.93,1.33,13.69.16,7.76-5.31,9.82-2.07,14.21Z"/>
    <path d="M355.02,87.01c5.48-.77,1.72-4,4.79-8.68,3.07-4.68,7.16-3.67,7.02-7.6-.2-5.68-9.15-3.97-13.48,3.07-2.93,4.77-.66,13.53,1.66,13.21Z"/>
    <path d="M305.59,124.91c.23,7.76,9.53,16.21,11.98,14.06,5.78-5.06-1.04-5.95-1.04-13.71s5.51-9.71,2.36-14.17c-4.55-6.45-13.64,2.36-13.3,13.82Z"/>
    <path d="M359.07,92.86c1.13,7.68,11.35,14.99,13.54,12.57,5.15-5.7-1.73-5.79-2.63-13.5-.9-7.71,4.34-10.28.7-14.34-5.27-5.87-13.27,3.93-11.6,15.27Z"/>
    <path d="M262.22,138.53c5.78-5.06-1.04-5.95-1.04-13.71s5.51-9.71,2.36-14.17c-4.55-6.45-13.64,2.36-13.3,13.82.23,7.76,9.53,16.21,11.98,14.06Z"/>
    <path d="M319.54,125.49c4.68,6.35,13.59-2.64,13.01-14.09-.39-7.76-9.86-16.01-12.27-13.81-5.67,5.18,1.16,5.93,1.33,13.69.16,7.76-5.31,9.82-2.07,14.21Z"/>
    <path d="M453.27,384.24c-.76-1.27-1.72-2.02-2.78-2.32-1.64,2.72-3.08,5.71-4.26,9.03-2.55,7.19-1.97,13.19-.66,19.56,1.71,1.44,3.31,2.09,4.21,1.42,6.15-4.59-.58-6.01.03-13.75.6-7.74,6.25-9.25,3.45-13.94Z"/>
    <path d="M234.75,149.17c6.37,4.44,18.69,2.02,18.43-1.23-.61-7.66-5.4-2.71-11.63-7.34-6.23-4.63-4.51-10.21-9.96-10.34-7.89-.19-6.24,12.36,3.16,18.92Z"/>
    <path d="M377.35,98.07c5.06-2.24.56-4.32,2.23-9.66,1.67-5.34,5.88-5.49,4.67-9.24-1.74-5.41-9.89-1.31-12.12,6.64-1.51,5.39,3.07,13.2,5.22,12.25Z"/>
    <path d="M428.45,262.12c1.13-7.56,2.3-15.37,4.37-22.35,5.44-18.3,14.73-30.16,31.93-40.76.42-4.72-1.35-9.72-3.2-9.47-5.93.8-1.88,4.32-5.22,9.36-3.34,5.05-7.75,3.94-7.62,8.19.04,1.36.57,2.31,1.38,2.91-1.3,1.24-2.5,2.49-3.63,3.76,1.2-2.44,2.21-4.16.42-6.69-4.55-6.45-13.64,2.36-13.3,13.82.03.98.21,1.98.49,2.96-3.87.01-8.73,1.75-12.66,5.43-5.67,5.31-5.84,17.87-2.61,18.29,7.62.98,3.77-4.72,9.59-9.86,2.18-1.93,4.26-2.73,6.08-3.27-.43,1.23-.82,2.47-1.18,3.72-2.4,1.59-4.7,3.9-6.4,6.87-3.33,5.78-1.24,15.48,1.46,17.76.03-.22.07-.44.1-.66Z"/>
    <path d="M315.47,411.09c1.04.77,3.01-.2,5-2.13.21-.22.09-.1.84.67-2.83-5.11-7.23-6.24-14.17-7.66-4.49-.92-9.58-1.95-14.23-4.91-4.13-2.63-6.36-6.26-8.32-9.46-.36-.59-.71-1.14-1.05-1.69.33.61.62,1.26.86,1.99.05.08.1.16.14.23-1.26,3.14,3.22,4.84,3.35,11.11.16,7.76-5.31,9.82-2.07,14.21,4.56,6.19,13.13-2.2,13.03-13.22.97.33,1.94.62,2.9.88-.1,3.26-.79,5.54,2.18,7.38,3.8,2.36,7.04-.37,8.25-5.08.64.2,1.26.42,1.84.66-1.25,2.6-2.3,4.22,1.46,7.03Z"/>
    <path d="M360.57,190.29c4.08-6.61,9.78-5.37,9.45-10.82-.34-5.42-6.29-5.81-11.83-2.3v10.21c0,.56.57,2.06,1.78,4.04.18-.37.37-.74.61-1.13Z"/>
    <path d="M412.42,304.34c4.62-3.95,8.01-9.25,10.56-16.41,2.1-5.92,3.39-12.55,4.46-19.22-2.91,2.78-5.22,7.95-5.04,13.83.04,1.29.33,2.61.8,3.89-.56,1.52-1.19,3.03-1.88,4.52-.27-.48-.53-.99-.77-1.58-2.88-7.21,1.52-11.06-3.06-14.03-2.04-1.32-3.93-1.13-5.45.05-.4,2.36-.91,4.67-1.41,6.92-.59,2.63-1.14,5.11-1.47,7.47.27,1.11.63,2.22,1.11,3.33.16.37.35.74.56,1.09-.63.87-1.2,1.88-1.7,2.97.44,2.47,1.43,4.85,3.29,7.18Z"/>
    <path d="M408.8,115.81c-1.91-1.68-9.18,4.87-9.39,10.92-.31,8.93,6.75,15.82,10.32,10.82,2.47-3.46-1.82-5-1.79-11.05.03-6.05,5.35-6.72.86-10.69Z"/>
    <path d="M405.44,325.18c-.45-.4-.89-.81-1.32-1.24l-.64,1.29c-.26.53-.53,1.05-.8,1.56.87-.58,1.77-1.1,2.69-1.57l.07-.03Z"/>
    <path d="M349.61,124.18c-3.88,6.73-.4,18.8,2.81,18.26,7.57-1.27,2.24-5.61,6.31-12.22,4.08-6.61,9.78-5.37,9.45-10.82-.49-7.88-12.85-5.15-18.57,4.78Z"/>
    <path d="M344.13,108.44c-5.67,5.31-5.84,17.87-2.61,18.29,7.62.98,3.77-4.72,9.59-9.86,5.82-5.14,10.92-2.3,12.18-7.61,1.82-7.68-10.8-8.66-19.16-.82Z"/>
    <path d="M332.89,117.41c-.42,3.33,2.98,7.56,4.17,6.8,2.8-1.77-.05-2.61.48-5.92.52-3.31,3-3.77,1.96-5.89-1.51-3.06-5.98.09-6.6,5Z"/>
    <path d="M323.18,161.43c-3.97,3.63.82,4.15.93,9.59.1,4.8-2.84,6.49-1.99,8.93,1.48-1.7,3.51-1.98,4.64-1.98,1.02,0,2.12.22,3.33.66,1.12-2.02,1.83-4.66,1.68-7.53-.27-5.43-6.91-11.22-8.6-9.68Z"/>
    <path d="M322.68,129.42c-5.67,5.18,1.17,5.93,1.33,13.69.16,7.76-5.31,9.82-2.07,14.21,4.68,6.35,13.59-2.64,13.01-14.09-.39-7.76-9.86-16.01-12.27-13.81Z"/>
    <path d="M330.39,126.16c-3.35,6.91,3.28,5.07,6.31,12.22,3.03,7.15-1.29,11.09,3.35,13.96,6.7,4.16,11.64-7.49,6.86-17.91-3.24-7.06-15.09-11.22-16.51-8.28Z"/>
    <path d="M297.39,163.03l1.99,3.36c1.9,3.2,4.24,6.02,6.93,8.44,2.71.91,4.99.94,5.59-.23,3.49-6.84-3.17-5.14-6.05-12.35-2.88-7.21,1.52-11.06-3.06-14.03-6.26-4.07-11.23,6.06-7.87,16.07l2.47-1.25Z"/>
    <path d="M284.07,131.89c1.35,7.32,5.47,2.08,11.94,5.92,6.47,3.84,5.36,9.39,10.63,8.97,7.62-.6,4.78-12.53-4.93-17.91-6.58-3.65-18.21-.08-17.64,3.02Z"/>
    <path d="M309.62,179.06c-.24-.49-.48-.88-.72-1.22l-.58,1.99c-.23.81-.4,1.6-.53,2.38,1.44-1.14,2.23-2.34,1.83-3.15Z"/>
    <path d="M307.69,157.44c.23,7.76,9.53,16.21,11.98,14.06,5.78-5.06-1.04-5.95-1.04-13.71s5.51-9.71,2.36-14.17c-4.55-6.45-13.64,2.36-13.3,13.82Z"/>
    <path d="M285.35,121.97c-3.76,0-4.71-2.65-6.86-1.13-3.12,2.21,1.16,6.6,6.71,6.42,3.76-.12,7.84-4.63,6.79-5.82-2.46-2.79-2.88.51-6.64.52Z"/>
    <path d="M391.05,105.37c-2.05-1.5-8.7,5.67-8.37,11.72.5,8.92,8.15,15.15,11.25,9.84,2.15-3.67-2.26-4.81-2.78-10.84-.52-6.03,4.72-7.18-.11-10.72Z"/>
    <path d="M370.29,118.61c.23,7.76,9.53,16.21,11.98,14.06,5.78-5.06-1.04-5.95-1.04-13.71s5.51-9.71,2.36-14.17c-4.55-6.45-13.64,2.36-13.3,13.82Z"/>
    <path d="M406.29,111.67c-2.16-1.53-3.1,1.13-6.86,1.13-3.76,0-4.18-3.31-6.64-.52-1.04,1.19,3.03,5.7,6.79,5.82,5.55.18,9.82-4.21,6.71-6.42Z"/>
    <path d="M394.1,92.65c-4.78,10.42.16,22.07,6.86,17.91,4.64-2.88.32-6.81,3.35-13.96,3.03-7.15,9.66-5.31,6.31-12.22-1.42-2.94-13.28,1.22-16.51,8.28Z"/>
    <path d="M387.47,100.6c5.09-1.45,2.11-6.26,6.84-12.12,4.72-5.86,10.41-2.38,9.13-9.71-.54-3.11-12.69-2.4-17.59,3.31-7.23,8.43-5.73,20.6,1.62,18.51Z"/>
    <path d="M357.09,175.77c5.78-5.06-1.04-5.95-1.04-13.71s5.51-9.71,2.36-14.17c-4.55-6.45-13.64,2.36-13.3,13.82.23,7.76,9.53,16.21,11.98,14.06Z"/>
    <path d="M364.62,126.32c-3.18,1.51-5,6.92-3.65,7.55,3.16,1.48,2.28-1.52,5.51-2.94,3.23-1.42,5.04.52,6.32-1.61,1.85-3.07-3.47-5.24-8.17-3Z"/>
    <path d="M366.64,107.97c-1.53-.99-2.73,1.68-1.67,4.11.72,1.65,3.44,2.66,3.78,1.99.81-1.58-.73-1.19-1.4-2.86s.35-2.56-.71-3.24Z"/>
    <path d="M570.24,240.02c-.12.32-.21.65-.27.98l-.18.98-.6.79c-.79,1.03-1.62,2.37-2.22,3.35-.6.97-.96,1.56-1.37,2.03-.34.39-.78.82-1.32,1.32,3.02-1.57,5.83-5.9,6.66-11.29-.23.62-.47,1.23-.69,1.85Z"/>
    <path d="M563.95,249.74c-.89.8-2.02,1.75-3.47,2.95-.61.5-1.33,1.11-2.03,1.7,2.87.8,7.94,1.47,13.21,1.47.15,0,.28,0,.4,0-1.11-1.01-2.37-1.93-3.79-2.72-1.82-1.01-4.02-1.46-6.24-1.53.68-.62,1.31-1.24,1.9-1.86Z"/>
    <path d="M540.9,208.6c3.16,1.48,2.28-1.52,5.51-2.94,3.23-1.42,5.04.52,6.32-1.61,1.85-3.07-3.47-5.24-8.17-3-3.18,1.51-5,6.92-3.65,7.55Z"/>
    <path d="M551.19,179.98c2.33-1.61,4.05-.37,4.73-2.24.99-2.7-3.54-3.6-6.9-1.11-2.28,1.68-2.88,6.22-1.72,6.51,2.72.68,1.57-1.55,3.89-3.16Z"/>
    <path d="M502.56,363.97c-1.53-.99-2.73,1.68-1.67,4.11.72,1.65,3.44,2.66,3.78,1.99.81-1.58-.73-1.19-1.4-2.86-.67-1.67.35-2.56-.71-3.24Z"/>
    <path d="M520.34,241.72c.56-1.11,2.12-6.5,3.41-12.02l-1.98,6.91c-.62,2.16-2.07,7.21-6.49,8.46-.85.24-1.69.36-2.51.36-2.04,0-3.91-.74-5.43-2.14l-3.9-3.59c.06,1.59.06,3.54-1.19,5.87-1.28,2.4-2.86,3.68-4.25,4.69,1.22-.18,2.44-.35,3.65-.51,8.05-1.06,15.66-2.07,18.68-8.03Z"/>
    <path d="M523.57,196.85c-1.53-.99-2.73,1.68-1.67,4.11.72,1.65,3.44,2.66,3.78,1.99.81-1.58-.73-1.19-1.4-2.86-.67-1.67.35-2.56-.71-3.24Z"/>
    <path d="M519.53,240.08c3.13-5.53.28-12.53-3.93-10.7-2.92,1.27-.32,3.84-2.31,7.66-1.99,3.82-6.06,2.25-4.11,6.43.83,1.78,8.23.36,10.35-3.39Z"/>
    <path d="M562.21,207.4c5.78-5.06-1.04-5.95-1.04-13.71s5.51-9.71,2.36-14.17c-4.55-6.45-13.64,2.36-13.3,13.82.23,7.76,9.53,16.21,11.98,14.06Z"/>
    <path d="M499.04,204.18c-.79,2.15-1.27,4.55-1.78,7.09-.09.47-.19.94-.29,1.41l-.06.27-.09.26c-.34.97-.58,1.97-.79,2.97.5-.87,1.01-1.62,1.36-2.33.06-.04.13-.05.19-.1,3.15-2.76,1.91-4.06.61-6.37.6-2.01,1.26-3.98,2.07-5.87.32.39.71.76,1.17,1.08,1.77,1.23,5.19.56,5.12-.35-.17-2.12-1.5-.75-3.23-2.03-.87-.65-1.18-1.35-1.47-1.91-1.09,1.83-2.04,3.78-2.81,5.88Z"/>
    <path d="M539.07,187.25c1.44,2.4,2.2.01,4.99.52,2.79.5,3.12,2.61,4.93,1.77,2.61-1.21.04-5.05-4.09-5.67-2.8-.42-6.43,2.37-5.82,3.39Z"/>
    <path d="M523.21,176.37c.23,7.76,9.53,16.21,11.98,14.06,5.78-5.06-1.04-5.95-1.04-13.71s5.51-9.71,2.36-14.17c-4.55-6.45-13.64,2.36-13.3,13.82Z"/>
    <path d="M545.91,147.12c-3.35,6.91,3.28,5.07,6.31,12.22,3.03,7.15-1.29,11.09,3.35,13.96,6.7,4.16,11.64-7.49,6.86-17.91-3.24-7.06-15.09-11.22-16.51-8.28Z"/>
    <path d="M538.2,150.38c-5.67,5.18,1.17,5.93,1.33,13.69.16,7.76-5.31,9.82-2.07,14.21,4.68,6.35,13.59-2.64,13.01-14.09-.39-7.76-9.86-16.01-12.27-13.81Z"/>
    <path d="M500.6,176.8c.8-.26,1.6-.5,2.41-.72-.73-.29-1.35-.33-1.72.01-.28.25-.49.48-.68.71Z"/>
    <path d="M579.73,173.9c-2.5,1.86-4.42-.13-4.67,2.94-.11,1.3,4.84,2.28,7.4.5,3.78-2.63,4.44-7.66,1.28-7.59-2.19.05-1.5,2.29-4,4.15Z"/>
    <path d="M591.05,198.27c.13-4.25-4.29-3.15-7.62-8.19-3.34-5.05.71-8.56-5.22-9.36-2.52-.34-4.93,9.15-1.74,14.29,4.7,7.6,14.4,9.41,14.59,3.27Z"/>
    <path d="M574.93,201.4c2.27-3.6-2.1-4.88-2.42-10.93-.32-6.04,4.95-7.02.24-10.72-2-1.57-8.89,5.39-8.74,11.44.21,8.93,7.65,15.41,10.92,10.2Z"/>
    <path d="M598.04,175.69c.34-11.46-8.75-20.26-13.3-13.82-3.15,4.46,2.36,6.4,2.36,14.17s-6.82,8.66-1.04,13.71c2.45,2.15,11.75-6.3,11.98-14.06Z"/>
    <path d="M579.81,221.03c-.55-11.45-10.3-19.52-14.33-12.74-2.5,4.21,1.77,5.87,3.11,11.76l2.31-4.76,4.06,5.94c.08.11.15.23.24.37l1,1.54-.45,1.77c-.14.53-.27,1.06-.45,1.61-.33,1.1-.72,2.14-1.09,3.14l-.03.09c-.59,1.58-1.21,3.17-1.81,4.7-.13.33-.26.66-.39.99,3.49-2.22,8.11-8.69,7.83-14.42Z"/>
    <path d="M575.22,207.25c1.41-.37.61-1.71,1.94-3.3,1.33-1.59,2.87-.6,2.56-2.62-.13-.86-3.48-.72-4.85.82-2.03,2.28-1.68,5.63.35,5.1Z"/>
    <path d="M574.06,142.94c.98.6,3.7-2.88,3.31-5.58-.56-3.99-4.23-6.5-5.43-4-.83,1.73,1.2,2.08,1.66,4.77.46,2.69-1.85,3.4.45,4.81Z"/>
    <path d="M606.06,236.67c-1.44-2.92-5.58-.16-6.48,4.38l5.85-2.19-.03.68c.69-.98,1.26-1.66.66-2.88Z"/>
    <path d="M510.87,188.38c-3.34,2.49-6.06,5.35-8.22,8.63,2.69.7,5.96-2.72,6.95-7.56.35-.26.71-.52,1.08-.77.3-.15.62-.46.87-.8,3.67,6.56,14.44,10.44,15.86,7.67,3.49-6.84-3.17-5.14-6.05-12.35-1.33-3.32-1.11-5.92-.94-8.06.33-.4.66-.8.98-1.21-.01,0-.04,0-.06,0l-6.04,7.33c-.08.1-.15.18-.21.26-.5.67-1.79,2.82-2.94,5.27l-.45.95-.84.63Z"/>
    <path d="M604.03,233.82c7.25,1.25,7.91-9.66,1.21-17.51.55-1.39.89-2.83.94-4.24.34-11.46-8.75-20.26-13.3-13.82-.9,1.27-1.08,2.33-.9,3.39-2.21.77-4.25,2.24-5.37,3.58-3.07-2.7-6.65-3.08-7.85.32-1.35,3.83,2.99,4.1,4.56,9.65,1.5,5.29-2.67,7.37,1.39,9.68-.73,2.89,3.36,4.71,3.48,10.69.16,7.76-5.31,9.82-2.07,14.21.48.65,1,1.12,1.55,1.46.06-.05.13-.11.19-.16,1.33-1.12,2.62-2.2,3.84-3.32l-2.38-2.69,5.58-2.18,1-.39c.91-.36,1.82-.7,2.73-1.05.41-1.8.62-3.74.51-5.76-.16-3.26-1.93-6.6-4.1-9.22.81.07,1.9-.36,3.07-1.14,2.38,4.21,1.6,7.76,5.93,8.5ZM592.1,223.53c-.97-.78-1.91-1.37-2.75-1.71.46-.82.87-1.74,1.2-2.71.69.21,1.42.47,2.17.85-.7,1.24-1.14,2.29-.62,3.56ZM590.41,210.74c-.26-.64-.55-1.26-.87-1.84,1.17-.49,2.6-1.3,4.9-1.03.03,0,.06.01.09.01.29.91.53,1.91.64,3.07-1.66-.26-3.3-.32-4.75-.21Z"/>
    <path d="M564.87,146.48c-2.96,4.98,3.03,6.58,3.67,14.8.64,8.22-6.5,9.72.03,14.6,2.77,2.07,11.92-7.64,11.52-15.87-.58-12.15-10.93-20.72-15.22-13.53Z"/>
    <path d="M508.53,366.03c-3.88,6.73-.4,18.8,2.81,18.26,7.57-1.27,2.24-5.61,6.31-12.22,4.08-6.61,9.78-5.37,9.45-10.82-.49-7.88-12.85-5.15-18.57,4.78Z"/>
    <path d="M523.88,350.98c-2.8-.42-6.43,2.37-5.82,3.39,1.44,2.4,2.2.01,4.99.52,2.79.5,3.12,2.61,4.93,1.77,2.61-1.21.04-5.05-4.09-5.67Z"/>
    <path d="M520.52,173.72c.06-1.81-.23-3.27-2.21-4.56-3.9-2.53-7.29.44-8.49,5.45.13-.02.25-.04.38-.06l.61,2.8v-.74s.01,0,.01,0v-2.09h-.1c.18,0,.57-.04,1.01-.07l8.78-.73Z"/>
    <path d="M652.74,325.08c-1.11-2.42-3.25-4.5-5.62-6.07l.44,3.17h0s.91,6.15.91,6.15v.07s.02.06.02.06l.18,1.22-.51,1.12c-1.91,4.23-2.87,8.28-2.82,11.8.17.13.33.26.53.38,6.7,4.16,11.64-7.49,6.86-17.91Z"/>
    <path d="M606.7,262.66c-1.59,0-2.86-.55-3.74-1-1.25,1.26-3.28,3.54-5.2,5.8,4.35-1.26,9.17-3.34,13.35-5.99-1.63.73-2.81,1.08-3.88,1.17-.18.01-.36.02-.53.02Z"/>
    <path d="M536.93,210.44c.12-1.59.47-3.43,1.74-5.49,4.08-6.61,9.78-5.37,9.45-10.82-.49-7.88-12.85-5.15-18.57,4.78-2.79,4.84-1.78,12.44.21,16.12-.28.35-.55.72-.82,1.12,2.1-2.82,4.69-5.6,8-5.71Z"/>
    <path d="M502.62,204.15c-5.67,5.18,1.16,5.93,1.33,13.69.16,7.76-5.31,9.82-2.07,14.21,4.68,6.35,13.59-2.64,13.01-14.09-.39-7.76-9.86-16.01-12.27-13.81Z"/>
    <path d="M518.56,199.66c2.76-2-1.09-5.88-6.04-5.67-3.35.14-6.95,4.2-6.01,5.25,2.21,2.47,2.56-.48,5.92-.52,3.35-.04,4.22,2.33,6.13.95Z"/>
    <path d="M585.47,235.36c-4.55-6.45-13.64,2.36-13.3,13.82.07,2.23.88,4.5,2.07,6.58l4.66-.3-1.26,4.78c.2.2.39.39.59.58-.46.65-.9,1.31-1.31,2.01-.01-.04-.03-.08-.04-.11-.06.16-.1.33-.16.48,1.06-1.72,2.17-3.48,3.43-4.92,1.26-1.44,2.6-2.74,3.97-3.98-.56-1.27-1.01-2.79-1.01-4.77,0-7.77,5.51-9.71,2.36-14.17Z"/>
    <path d="M542.37,240.39c.39.06.79.06,1.19,0,.33-.26.65-.51.96-.78,1-.87,3.63-3.88,6.77-7.82.74-2.26,1.15-4.83,1.01-7.54-.39-7.76-9.86-16.01-12.27-13.81-.18.17-.35.33-.51.49,2.82,1.28,3.96,4.73,4.63,6.78.14.44.34,1.02.5,1.45l2.29,1-.76,3.37-3.81,16.86Z"/>
    <path d="M556.13,225.52l2.76.81c.67.2,1.34.29,1.99.29,2.78,0,5.41-1.86,6.86-4.86l.28-.58c-.53.96-1.1,1.86-1.73,2.64-.05-.05-.09-.1-.14-.15-.05-2.61-.63-5.45-1.89-8.21-3.24-7.06-15.09-11.22-16.51-8.28-3.35,6.91,3.28,5.07,6.31,12.22,1.25,2.95,1.25,5.34,1.14,7.34l.94-1.23Z"/>
    <path d="M472.45,157.05c-4.04-6.78-13.78,1.29-14.33,12.74-.37,7.76,8.24,16.9,10.85,14.95,6.15-4.59-.58-6.01.03-13.75.6-7.74,6.25-9.25,3.45-13.94Z"/>
    <path d="M463.45,136.63c-3.76,0-4.71-2.65-6.86-1.13-3.12,2.21,1.16,6.6,6.71,6.42,3.76-.12,7.84-4.63,6.79-5.82-2.46-2.79-2.88.51-6.64.52Z"/>
    <path d="M462.17,146.55c1.35,7.32,5.47,2.08,11.94,5.92,6.47,3.84,5.36,9.39,10.63,8.97,7.62-.6,4.78-12.53-4.93-17.91-6.58-3.65-18.22-.08-17.64,3.02Z"/>
    <path d="M510.99,132.07c-.42,3.33,2.98,7.56,4.17,6.8,2.8-1.77-.04-2.61.48-5.92.52-3.31,3-3.77,1.96-5.89-1.51-3.06-5.98.09-6.6,5Z"/>
    <path d="M455.14,172.78c-2.8-3.96-7.6-1.15-9.95,4.38.2,1.18.51,2.31.94,3.38l.47,1.14-.23,1.21s-.01.07-.02.1l3.94,3.1c.95.75,2.02,1.37,3.17,1.85l.18.07c-.3-.89-.51-1.92-.51-3.17,0-2.07.46-3.65,1.01-4.97-.5,1.66.62,4.52,3.17,6.29,2.56,1.78,7.5.8,7.4-.5-.25-3.07-2.17-1.09-4.67-2.94-2.5-1.86-1.81-4.1-4-4.15-.79-.02-1.33.28-1.66.78,1.17-2.57,2.5-4.13.77-6.58Z"/>
    <path d="M508.49,140.82c-3.35,6.91,3.28,5.07,6.31,12.22,3.03,7.15-1.29,11.09,3.35,13.96,6.7,4.16,11.64-7.49,6.86-17.91-3.24-7.06-15.09-11.22-16.51-8.28Z"/>
    <path d="M500.78,144.08c-5.67,5.18,1.17,5.93,1.33,13.69s-5.31,9.82-2.07,14.21c4.68,6.35,13.59-2.64,13.01-14.09-.39-7.76-9.86-16.01-12.27-13.81Z"/>
    <path d="M485.79,172.1c.12,4.19,2.89,8.57,5.79,11.39-.22.62-.45,1.2-.72,1.73-.74-2.53-4.83-3.06-6.92-8.31-2.88-7.21,1.52-11.06-3.06-14.03-6.62-4.3-11.79,7.25-7.23,17.76,1.75,4.03,6.28,7.19,10.15,8.64.51-.13,1.02-.25,1.5-.36,1.52-.35,2.83-.65,3.68-1.26,1-.7,2.38-2.78,3.22-5.83l.53-1.9,1.81-.8c1.14-.51,2.28-.97,3.42-1.4-.67-1.36-1.25-3.03-1.25-5.28,0-7.77,5.51-9.71,2.36-14.17-4.55-6.45-13.64,2.36-13.3,13.82Z"/>
    <path d="M513.02,344.84c-3.26,1.52-6.63,3.1-9.89,4.41-2.77,1.12-5.57,2.21-8.29,3.26-16.51,6.41-32.28,12.56-42.13,26.11.71.24,1.45.56,2.23,1.03,6.47,3.84,5.36,9.39,10.63,8.97,7.62-.6,4.78-12.53-4.93-17.91-.11-.06-.22-.11-.32-.16,1.96-1.66,4.03-3.18,6.19-4.59-.12.94-.18,1.91-.15,2.9.2,6.63,8.13,13.84,10.23,12,4.93-4.32-.89-5.08-.89-11.71,0-5.1,2.77-7.25,2.83-9.71.33-.15.66-.3.99-.45-.56,1.27-.8,2.34.24,3.75,2.97,4.03,8.37-.76,9.06-7.65.49-.2.98-.39,1.48-.58,3.39,6.85,14.67,10.99,16.12,8.15,3.46-6.77-3.03-5.18-5.96-12.14,1.12-.45,2.23-.9,3.34-1.36,2.81,5.59,8.55,9.99,10.4,8.37,5.49-4.81-.39-5.85-.99-12.62.55-.34,1.14-.65,1.71-.96-.63.29-1.26.59-1.88.88Z"/>
    <path d="M554.2,374.37c1.41-.37.61-1.71,1.94-3.3,1.33-1.59,2.87-.6,2.56-2.62-.13-.86-3.48-.72-4.85.82-2.03,2.28-1.68,5.63.35,5.1Z"/>
    <path d="M522.23,123.1c-5.67,5.31-5.84,17.87-2.61,18.29,7.62.98,3.77-4.72,9.59-9.86,5.82-5.14,10.92-2.3,12.18-7.61,1.82-7.68-10.8-8.66-19.16-.82Z"/>
    <path d="M470.81,416.44c3.49-6.84-3.17-5.14-6.05-12.35-2.88-7.21,1.52-11.06-3.06-14.03-6.62-4.3-11.79,7.25-7.23,17.76,3.09,7.12,14.86,11.53,16.34,8.62Z"/>
    <path d="M478.59,413.35c5.78-5.06-1.04-5.95-1.04-13.71s5.51-9.71,2.36-14.17c-4.55-6.45-13.64,2.36-13.3,13.82.23,7.76,9.53,16.21,11.98,14.06Z"/>
    <path d="M633.41,194.99c-.2-5.68-9.15-3.97-13.48,3.07-2.93,4.77-.66,13.53,1.66,13.21,5.48-.77,1.72-4,4.79-8.68,3.07-4.68,7.16-3.67,7.02-7.6Z"/>
    <path d="M618.24,212.71c-2.88-7.21,1.51-11.05-3.05-14.02,2.48-1.65,4.71-3.85,5.83-6.42,4.56-10.51-.62-22.06-7.23-17.76-4.58,2.98-.18,6.82-3.06,14.03-2.88,7.21-9.54,5.51-6.05,12.35.38.74,1.42,1,2.81.87-1.65,3.66-1.87,9.3.46,14.68,3.09,7.12,14.86,11.53,16.34,8.62,3.49-6.84-3.17-5.14-6.05-12.35Z"/>
    <path d="M610.71,232.71c-4.64,4.35-5.6,13.57-4.01,16.99.37.47.79.89,1.25,1.26.05.01.1.03.15.04,7.62.98,3.77-4.72,9.59-9.86,5.82-5.14,10.92-2.3,12.18-7.61,1.82-7.68-10.8-8.66-19.16-.82Z"/>
    <path d="M629.01,165.69c-8.36-7.84-20.98-6.86-19.16.82,1.26,5.31,6.36,2.47,12.18,7.61,5.82,5.14,1.97,10.84,9.59,9.86,3.23-.42,3.06-12.98-2.61-18.29Z"/>
    <path d="M601.89,168.03c-4.58,2.98-.18,6.82-3.06,14.03-2.88,7.21-9.54,5.51-6.05,12.35,1.48,2.91,13.25-1.5,16.34-8.62,4.56-10.51-.62-22.06-7.23-17.76Z"/>
    <path d="M499.61,246.23c5.78-5.06-1.04-5.95-1.04-13.71s5.51-9.71,2.36-14.17c-1.36-1.92-3.12-2.48-4.91-2.02-.07.35-.15.69-.21,1.04l-.05.31-.09.3c-.43,1.39-.9,2.62-1.44,3.76l-.36.76-.63.56c-.93.83-1.88,1.67-2.83,2.51-7.91,6.97-14.08,12.91-16.51,19.26.52-1.18,1.15-2.35,1.89-3.51.47.92,1.09,1.79,1.81,2.6-.51,1.19-.85,2.42-.89,3.64-.11,3.24.75,6.21,2.07,8.45.66-.25,1.32-.5,1.99-.75,1.93-.74,3.9-1.49,5.91-2.19-.51-1.04-1.04-2.25-1.3-3.82.93.37,1.84.64,2.65.8,0,.84.07,1.69.2,2.51,1.55-.5,3.12-.98,4.74-1.37.99-.24,2.03-.44,3.08-.62-1.23-2.34-1.02-4.31-1.22-5.78,1.99,1.56,3.86,2.23,4.77,1.43ZM491.3,242.03c-.37-.05-.74.14-1.09.47-.78-.6-1.63-1.3-2.44-2.23.33-1.05.06-2.09-1.67-3.62-.14-.12-.32-.19-.51-.23-.75-2.1-.9-3.91-.86-5.48,0,0,.02-.02.02-.02.99,2.5,2.4,4.54,3.97,5.87.83,1.97,2.06,3.84,3.41,5.4-.26-.06-.52-.11-.83-.15Z"/>
    <path d="M472.82,252c.15,1.81.6,3.69,1.41,5.65.81-.27,1.62-.57,2.44-.86-1.09-1.99-2.42-3.63-3.85-4.79Z"/>
    <path d="M569.14,120.03c-2.05-1.5-8.7,5.67-8.37,11.72.5,8.92,8.14,15.15,11.25,9.84,2.15-3.67-2.26-4.81-2.78-10.84-.52-6.03,4.72-7.18-.11-10.72Z"/>
    <path d="M584.82,158.19c1.33,1.38,2.36-.4,5.05.11s2.55,2.92,4.67,1.25c.9-.71-1.41-4.47-4.08-5.05-3.93-.86-7.57,1.7-5.64,3.69Z"/>
    <path d="M584.39,126.33c-2.15-1.53-3.1,1.13-6.86,1.13-3.76,0-4.18-3.31-6.64-.52-1.04,1.19,3.03,5.7,6.79,5.82,5.55.18,9.82-4.21,6.71-6.42Z"/>
    <path d="M527.7,138.84c-3.88,6.73-.4,18.8,2.81,18.26,7.57-1.27,2.24-5.61,6.31-12.22,4.08-6.61,9.78-5.37,9.45-10.82-.49-7.88-12.85-5.15-18.57,4.78Z"/>
    <path d="M542.72,140.98c-3.18,1.51-4.99,6.92-3.65,7.55,3.16,1.48,2.28-1.52,5.51-2.94,3.23-1.42,5.04.52,6.32-1.61,1.85-3.07-3.47-5.24-8.17-3Z"/>
    <path d="M586.9,130.47c-1.91-1.68-9.18,4.87-9.39,10.92-.31,8.93,6.75,15.82,10.32,10.82,2.47-3.46-1.82-5-1.79-11.05.03-6.05,5.35-6.72.86-10.69Z"/>
    <path d="M603.05,158.93c-4.95-.21-8.8,3.67-6.04,5.67,1.91,1.38,2.78-.99,6.13-.95,3.35.04,3.7,2.99,5.92.52.94-1.05-2.66-5.11-6.01-5.25Z"/>
    <path d="M597.32,145.22c-3.34-5.05.71-8.56-5.22-9.36-2.52-.34-4.93,9.15-1.74,14.29,4.7,7.6,14.4,9.41,14.59,3.27.13-4.25-4.29-3.15-7.62-8.19Z"/>
    <path d="M705.51,671.39c-200.88.22-402.28-.11-602.83.06-3.01,0-19.89-.8-20.37,1.57l1.03,3.14c9.76,1.19,19.93.16,29.84.46,106.09,3.22,213.35,1.25,319.67,1.14,78.66-.08,158.25.75,237.04-1.14,5.39-.13,37.99.9,39.21-1.02l-.46-3.18-3.14-1.04Z"/>
    <path d="M116.16,684.92c-3.01.03-6.47-1.71-9.82-.95v4.66s497.7.59,497.7.59l.54-5.19-8.77-1.15c-159.89-.82-320.08.44-479.65,2.03Z"/>
    <path d="M547.71,695.48c-13.59-.11-27.19.1-40.78.04-5.9-.03-11.76.02-17.67,0-95.05-.18-190.11.04-285.16-.07l-.6,4.19h343.17c.29,0,2.9,2.17,3.65-.53.55-1.99-.54-3.44-2.61-3.64Z"/>
    <path d="M681.26,683.94c-4.92,0-30.42-2.74-32.28-.02l-.46,4.25h32.91c1.7,0,1.35-3.87-.17-4.23Z"/>
    <path d="M610.49,683.98c-2.44,7.92,4.04,4.26,8.21,4.14,3.6-.11,23.83.96,24.45-.1l.15-4.03c-11.04.51-21.84-2.26-32.81-.01Z"/>
    <path d="M577.84,699.49l1.27-.82.46-3.19h-12c-2.44,5.82,6.36,4.18,10.28,4.01Z"/>
    <path d="M618.22,694.43c-1.54,6.28,3.88,8.53,8.35,4.66.12-5.02-4.52-4.99-8.35-4.66Z"/>
    <path d="M584.79,694.43l.98,4.76,7.37.45c.44-5.42-4.19-5.63-8.36-5.21Z"/>
    <path d="M157.55,696.55l-.02,3.1c1.92-.13,11.5.84,11.48-1.56-3.36-3.38-7.4-2.49-11.46-1.54Z"/>
    <path d="M563.77,699.53v-3.93l-5.48-1.09c-4.79,5.37.44,7.35,5.48,5.02Z"/>
    <path d="M719.91,671.62l-5.58-.17c-.77,11.13,12.39,2.25,5.58.17Z"/>
    <path d="M188.87,695.47v5.23c8.57.79,10.03-6.83,0-5.23Z"/>
    <path d="M91.23,682.95c-4.06,1.13-.43,9,3.53,6.17,2.18-1.56.23-7.21-3.53-6.17Z"/>
    <path d="M67.69,675.61c3.82.44,8.4,1.65,9.4-3.11h-9.41s0,3.11,0,3.11Z"/>
    <path d="M86.96,663.15c.69.98,10.3,1.95,12.54,2.08,68.48,4.06,144.83-.24,214.25-.1,65.66.13,131.74.25,197.34,0,56.32-.22,115.51,2.56,171.42.09,7.15-.32,15.2-1.57,22.41-2.14-.14-4.17-5.88-5.51-9.15-5.99-8.24-1.22-17.98-1.08-26.36-1.33,4.48-6.17-1.29-6.25-5.49-3.15-1.35.99-1.83,3.2-3.39,4.2-1.99-1.42.36-6.51-2.98-6.14l-9.02,7.19c-2.09-1.72,3.05-11.28-.53-11.46-2.99-.15-8.41,9.76-12.01,10.42l3.18-12.94c-4.86-6.64-11.97,13.95-14.67,10.84l2.08-15.66c-4.8-2.57-11.69,19.02-14.61,15.66l1.03-19.85c-5.92-1.58-5.57,6.46-8.14,11.18-1.67,3.07-8.88,11.73-8.49,4.1.17-3.36,2.89-8.12-.62-11.09-3.72-.78-6.41,13.24-11.98,11.48-2.89-1.98,4.26-19.39-5.29-13.1l-4.63,11.01c-5.92-6.79.77-17.6-5.24-24l-7.31,21.9c-4.62-4.88-.48-14.54-7.32-17.73l-3.14,14.61c-2.56.57-6.17-8.23-5.74-10.44l-4.87,7.18c-11.24,1.78-15.38-8.37-22.58-12.63-6.8-4.02-15.84-5.1-23.64-9.79-18-10.83-14.76-20.55-26.15-33.39-1.94-2.19-5.39-3.21-6.58-5.96-2.34-5.4.35-14.25-2.38-21.65-2.6-7.07-11.69-11.48-12.96-19.42-2.19-13.71,5.46-25.24-.6-41.18-1.64-4.3-5.66-7.9-7-11.82-3.39-9.97,5.72-35.69,6.53-48.22,1.16-17.94-8.78-29.2-2.63-46.5,9.82-27.64,35.11-34.4,59.26-44.16,8.06-3.26,16.78-8.12,24.86-10.66,18.65-5.87,51.03-1.46,65.24,13.03,7.97,8.13,7.67,18.68,21.63,23.29,3.8,1.25,22.99,6.32,17.05-3.48-1.07-1.77-14.48-4.98-18.24-7.87-3.21-2.46-4.5-4.27-5.88-7.94,8.66-1.22,17.05-1.6,25.19-3.99,3.89-1.14,7.05-2.56,9.79-4.14-.28-4.73,1.02-9.79,3.17-14.55,0-.04-.01-.09-.02-.13-.1.06-.19.11-.28.16-7.03,4.17-21.53,9.64-29.6,9.87-8.63.25-22.84-3.58-27.29-11.63.11-1.32,19.86-13.41,22.49-13.85,3.44-.58,9.52.43,13.19.95,6.69.95,13.29,2.91,20,4.19-.47-3.38-.83-6.8-.59-10.17.04-.62.14-1.24.28-1.86-11.18-1.84-16.07-2.32-21.56-3.89-5.89-1.69-4.48-3.25.43-5.66,11.64-5.7,19.21-.69,30.11-3.32.35-.08.71-.2,1.07-.32-1.23-3.82-2.11-7.76-2.58-11.77-4.88,1.47-10.08,2.16-13.96,2.36-2.14-2.18,10.6-15.28,12.55-16.17.41-.18.88-.33,1.4-.44.05-.4.09-.8.14-1.2.11-.83.24-1.65.39-2.48-.73-.16-1.47-.34-2.2-.53-2.57-.66-5.07-1.5-7.5-2.46-2.77,3.78-7.65,7.51-9.49,9.68-12.51,14.73-27.77,29.36-45.38,38.19-9.22,4.62-21.33,7.91-31.38,4.64-.78-1.03,6.14-5.77,6.95-6.62,9.15-9.64,9.52-17.7,24.36-21.09,16.28-3.71,24.67-2.93,38.19-15.08,2.06-1.85,6.94-8.01,10.64-12.45-3.33-1.66-6.55-3.56-9.68-5.6-4.26,11.06-22.29,19.45-33.06,20.45-1.26.12-1.49,1.29-2.89-.86-.03-.98,10.94-13.92,12.54-14.69,1.97-.95,3.2,1.32,5.3,1.16.89-.07,2.34-.7,4.05-1.57-5.57-1.12-10.19-5.99-9.96-11.91-1.54.58-3.07,1.18-4.6,1.78.32.36.64.75.96,1.21-4.33,4.76-9.82,8.19-14.08,13.04-2.48,2.83-4.65,7.79-7.14,10.1-2.87,2.66-7.77,3.94-11.04,6.2-8.99,6.21-12.81,13.58-23.85,17.94-9.63,3.8-17.81,2.71-27.22,5.16-12.07,3.15-28.43,13.52-39.63,15.73-2.85.56-5.77.17-8.64.25,4.42-39.29,51.84-34.3,77.02-54.16,9.06,2.76,26.92,11.66,30.58-2.24-3.59.23-21.72-.35-20.81-5.61.19-1.12,8.08-6.95,9.88-9,.45-.52,1.88-3.16,3.42-5.17.1-.54.25-1.08.45-1.63,1.25-3.45,2.66-6.85,3.94-10.29.37-.99.74-1.99,1.05-3.01.15-.47.27-.94.39-1.42-.06-.1-.12-.19-.18-.29-2.54,5.22-7.9,8.46-13.78,6.75-4.15,5.47-8.66,10.86-10.45,12.42-3.46,3.02-7.85,5.05-11.49,7.82l6.32-27.98c-2.79-1.22-1.91-14.71-10.02-3.7-8.11,11.01-1.8,3.01-2.77,4.47-1.12,6.78-4.1,17.99-5.24,20.24-5.37,10.58-20.01,9.2-30.11,11.64-7.6,1.84-14.45,5.39-21.91,7.42-10.75-19.08,5.69-31.35,18.41-42.73.49-1.03.88-2.11,1.22-3.2.25-1.65.65-3.29,1.21-4.91.63-3.08,1.18-6.21,2.24-9.1,2.69-7.31,7.15-13.17,13.26-17.71,1.21-2.58,2.62-4.99,3.37-5.99.09-.12.2-.26.33-.42-.77.06-1.39.11-1.29.08-5.16.74-9.98,2.22-14.55,4.25-.97,3.52-2.72,6.63-4.84,8.13-2.73,1.93-6.36,1.74-9.31,3.22-3.42,1.71-6.66,3.4-9.73,5.11-1.51,1.36-3.11,2.24-4.72,2.74-14.7,8.91-25.01,19.32-30.81,38.83-6.76,22.73-3.46,54.5-24.86,68.97-12.82-11.74-5.19-24.47-3.65-37.94.65-5.66,1.03-15.95.91-21.8-.25-12.4-5.53-20.39,2.85-31.9,10.47-14.38,22.38-8.48,29.15-31.44.32-1.08.67-2.77,1.04-4.74-1.27-3.11-1.78-6.69-1.37-10.5.25-2.32.69-4.59,1.29-6.83-.06.01-.12.02-.17.03-1.74.39-2.4.56-5.15,1.48-2.75.93-1.32.58-1.55.7-.87.48-1.74.94-2.58,1.46-1.84,1.16-1.64.97-2.49,1.81,2.85,7.51-.14,18.44-6.21,23.41-3.11,2.54-6.51,2.84-9.78,4.84-2.05,1.26-11.24,10.05-12.19,9.22-2.33-14.76-5.71-30.51-.77-45.15.39-1.17,1.33-4.02,3.59-7.48,2.26-3.45-19.16-2.2-17.98,3.09,1.18,5.29.65,6.31-.53,7.75-1.37.97-4.91-3.48-7.45-7.37-2.24-.06-1.85-2.55-6.65-.79-4.8,1.76-2.49,2.32-4.17,3.07.47,1.25.88,2.27,1.18,2.87,2.84,5.7,7.46,10.38,9.76,16.37l-6.27,26.57c-6.99.65-18.77-13.68-18.77-19.31v-6.36c-.15,0-.28.02-.43.02-2.16,0-.28-2.57-5.57-1.29-5.29,1.29-2.89,1.89-4.43,2.69.65,9.92,1.51,19.61,8.32,27.95,4.56,5.58,13.18,9.21,14.43,16.96.59,3.64-.82,8.19-.9,12.31-.05,2.62,1.06,4.9,1.01,7.17-.05,2.05-1.79,10.37-3.7,11-9.75,3.2-19.81-23.1-23.53-29.52-2.07-3.57-8.56-9.43-8.96-13.91-.28-3.13,4.3-11.42,4.87-15.6.48-3.59,2.93-10.21-.81-12.93-12.28-8.93-9.13,1.06-9.99,1.02-.25,7.52-1,15-3.76,21.92-12.64-5.92-19.99-17.21-16.25-30.13-3.38-2.87-6.27-6.34-8.53-10.15-3.44,1.74-7.63,2.05-11.33-.03-2.38-1.33-4.83-2.52-7.31-3.64-.26-.12-.44-.2-.56-.26-.06-.02-.16-.06-.3-.12-.76-.31-1.52-.61-2.28-.9-.42-.16-.83-.31-1.25-.46-.46.24-.94.46-1.46.64.5.86.08,1.77-1.92,2.7-4.12,1.93-2.42.72-9.91-2.1-7.49-2.83-4.98,4.23-4.37,5.85.61,1.62-1.34,1.31-2.04,1.81.02.42.04.86.04,1.19,3.49,2.59,4.97,7.33,4.29,11.58,1.62,1.57,2.8,3.98,4.65,5.76,2.2,2.13,5.8,3.85,7.4,6.21,1.39,2.06,1.43,6.35,4.12,9.42,8.06,9.18,28.83,18.49,31.94,31.78,2.66,11.32,3.16,29.29,10.36,38.74,6.53,8.57,23.91,18.25,25.55,28.77.63,4.02-.3,8.85.06,13-2.2.29-3.92-.13-5.98-.82-7.6-2.54-18.52-10.91-27.08-14.71-11.67-5.18-26.22-7.26-34.67-17.57-5.44-6.63-8.02-17.09-13.77-22.79-4.17-4.13-11.8-6.59-15.06-12.1-3.8-6.43-4.68-18.77-2.58-25.91l1.32.12c-2.19-1.3-4.36-2.62-6.51-3.98-4.13-2.61-8.39-5.41-12.33-8.53-.64.24-1.27.48-1.91.73-.46.65-.96,1.31-1.48,1.96,0,.72.01,1.45.05,2.17.03.56.24,2.85.3,3.58.03.19.06.39.08.58,11.84-.5,7.95,19.52,8.88,27.79,1.71,15.23,23.42,18.78,24.02,34.99-7.51-1.63-13.49-6.38-21.12-8.64-3.2-.95-8.98-1.82-14.62-3.2-2.21.13-4.47-.45-6.56-1.95-3.99-1.47-7.21-3.4-8.34-6.07-.33-.78-.5-1.68-.54-2.66-.81-.79-1.63-1.58-2.44-2.37-.19.19-.38.39-.58.57-.87.81-1.8,1.56-2.76,2.27-.05.57-.11,1.15-.19,1.71.82,3.1,1.27,6.41,1.77,9.88-.25-.04-.5-.11-.75-.16-.18,5.87-4.03,11.6-11.59,11.6-.46,0-.9-.02-1.33-.07.03.04.07.06.1.1-1.94.23-3.87.4-5.79.51-1.48.66-3.08,1.02-4.69.98-2.78-.07-5.51-.54-8.12-1.37-2.19-.29-4.34-.71-6.46-1.28-.38,2.22-2.16-.04-2.87,5.96-.72,6,0,.02.01.02.86,1.58,1.35,3.23,1.5,4.88,1.86,1.91,1.63,1.49,4.56,1.35,2.93-.14,3.54.88,11.82,1.63,4.73.43,11.87,3.65,15.81,3.56,3.52-.08,10.23-3.1,14.74-3.56,12.86-1.31,32.16.68,41.13,10.85-9.03.61-18.14.87-26.93,3.36-8.6,2.44-11.56,6.22-21.69,5.55-11.05-.74-17.82-8.18-28-10.37-1.36.4-2.62,2.75-2.31,4.17.23,1.08,1.03,2.22,2.2,3.37,1.14.66,2.19,1.52,3.12,2.52,6.62,4.6,17.49,8.83,21.81,9.62l.61,2.14c-4.09,1.46-12.24,3.74-18.3,9-6.06,5.27.25.16.37.24,2.54,1.82-4.29,7.25,6.87,5.04,11.16-2.21,1.5-1,2.27-1.45,2.75-1.61,5.56-1.96,8.13-1.43,1.79-2.13,4.03-6.07,5.63-7.24,16.08-11.79,51.53-11.63,69.09-3.49,8.76,4.06,20.45,10.76,29.44,15.48,12.08,6.35,29.74,27.09,30.23,41.32-4.18-1.37-7.81-3.73-11.99-5.23-4.83-1.73-10.95-2.43-15.22-4.62-5.66-2.9-10.79-10-16.99-13.31-10.84-5.79-29.42-16.24-40.03-20.56-9.32-3.79-20.21-3.64-30.08-1.13-4.55,1.16,5.28-5.79-11.56,5.45-16.84,11.24,1.76,5.84.75,8.98.46.22.91.47,1.34.74.95-.82,2.05-1.66,3.33-2.51,7.64-5.08,11.35-5.95,20.69-5.4,2.68.16,18.12,1.98,17.24,5.72-.88,3.75-21.64,5.08-22.84,6.94-.88,1.36-.2,6.07,1.32,7.28,3.77,2.99,21.55-4.32,27.54-5.06,9.56-1.19,4.3,3.02,8.19,6.95,3.59,3.64,11.32,2.98,16.08,4.81,10,3.86,9.83,13.27,17.42,18.1,10.12,6.44,23.36,2.42,29.81,14.07,5.17,9.33,8.83,17.19,16.29,25.5,1.78,8.93-.68,17.91.23,26.93,1,9.95,5.61,15.22,4.19,27.19-.62,5.2-3.21,5.13-5.08,8.5-5.63,10.13-7.6,24.7-4.9,35.91.78,3.24,3.26,7.18,3.65,9.98.53,3.9-4.97,24.09-6.76,28.63-2.68,6.79-9.76,13.03-11.29,19.01-1.27,4.96.02,10.88-2.36,15.4-1.98,3.77-10.13,9.33-13.54,12.58-2.62,2.5-4.76,6.95-7.74,8.97-4.48,3.04-12.63,3.24-18.21,5.82-5.55,2.56-12.71,10.61-17.9,11.37-2.13.31-1.37-.17-1.56-1.55-.28-1.98.96-12.05-1.56-12.02l-8.36,15.64-2.06-10.47-3.67-1.02-4.72,14.62-2.54-21.32c-1.91-2.64-4.63,1.32-5.06,3.27-1.29,5.8-.32,14.03-2.33,20.14-5.23-1.83-5.97-20.83-7.32-21.94-3.69-3.04-4.25,6.34-4.23,8.88.05,5.36,2.06,9.71.05,15.14-4.44-1.82-5.69-16.9-10.9-15.66-3.21,2.35-.07,6.7.35,10.02.32,2.56.06,5.17.1,7.72-5.29-1.9-7.42-13.87-11.99-14.64-2.13-.22-1.39.1-1.6,1.58-.58,4.13,1.9,8.72,1.06,13.05-7.7-.5-8.86-8.84-11.41-14.17-2.31-4.82-4.82-1.48-5.27,2.26-.59,4.85,3.84,9.5.49,12.95-4.63,1.35-7.45-13.6-14.08-11.48-.91.88,4.11,12.19.52,12.5-3.09.27-8.07-12.96-13.06-11.46l2.08,10.44c-5.13-.53-8.19-6.07-13.57-5.21l1.04,5.21c-18.46-.37-37.34.18-55.36,4.19l.46,3.18ZM209.78,287.02c-.41-6.76,8.01-5.11,12.52-5.21l-12.52,5.21ZM390.33,637.26c-.41,2.68-7.35,8.97-8.23,12.74l-23.99,3.68c.24-1.51,3.39-2.61,4.68-3.14,4.1-1.67,11.73-2.47,14.67-5.18,3.16-2.91,3.24-10.81,7.33-14.61,3.06-2.84,5.9,4.07,5.53,6.5ZM393.08,446.87c-5.82-10.42-20.3-36.4-23.47-46.53-.17-.53-.29-1.7.5-1.54,11.15,11.58,16.51,27.47,24.76,41.05,10.75,17.69,27.17,35.6,36.79,53.05,1.26,2.28,2.97,4.38,2.69,7.22-1.36,1.7-13.97-16.04-17.75-15.14,2.18,9.88,13.64,15.69,17.95,24.89.53,1.13,2.88,8.41-.69,6.96-1.78-.72-8.34-10.27-10.45-12.54-2.23-2.4-5.42-4.34-7.22-6.36-24.75-27.83-41.97-60.6-55.99-94.96,8.91,8.54,12.51,21.87,18.25,32.41,10.03,18.39,22.16,34.17,35.55,50.13l2.52-2.51c-8-11.87-16.45-23.62-23.44-36.13ZM404.04,507.99c7.62,7.15,10.2,10.78,16.75,17.73,4.94,5.24,14.01,7.9,14.62,17.23-19.34-2.98-27.05-19.26-37.62-32.88-9.42-12.14-20.52-22.55-25.04-38.15,9.81,12.64,19.59,25.09,31.3,36.07ZM368.6,445.22c-.21-1.03-.64-2.84.98-2.54,5.47,12.55,13.85,23.45,22.39,34.03,10.04,12.43,24.52,24.69,33.42,37.09,1.59,2.21,8.8,12.35,6.87,14.53-2.17-.13-4.76-2.21-6.26-3.66-10.3-9.96-23.51-26.11-32.35-37.64-6.85-8.93-22.99-31.51-25.07-41.81ZM366.47,587.88l3.12,10.99-1.05,9.89-2.07-13.06v-7.82ZM376.92,549.22c12.37,14.28,33.42,17.29,45.45,31.33,9.44,11.02,13.99,25.8,17.22,39.7-7.7-2.72-7.65-13.84-10.94-20.91-4.3-9.23-10.93-16.8-19.02-22.76-11.13-8.2-26.79-13.99-32.7-27.35ZM406.15,643.24c-3.82.89-.89-5.12-.93-7.82-.11-5.8-2.53-13.83-7.41-17.24-.88,4.87,1.2,14.07,0,18.28-.12.41-2.77,2.88-3.12,2.61l-9.41-17.22,5.2-3.2-4.09-6.35c-.35-2,3.53-3.46,4-5.3.65-2.52-2.38-3.2-1.98-5.53,13.53,9.42,24.5,24.74,17.73,41.78ZM401.44,600.43l-6.77-8.36c6.45,2.53,11.48,8.04,13.58,14.6l-6.81-6.24ZM409.32,591.51c-8.34-9.05-21.27-13.35-29.17-20.97-1.12-1.08-2.66-1.5-2.18-3.56,20.7,10.02,44.22,19.33,45.94,45.96-6.65-5.92-8.15-14.46-14.59-21.44ZM415.57,617.13l16.61,6.37.08,3.03c-7.35-.58-14.02-1.49-16.7-9.4ZM496.54,656.81c-8.55-.81-25.3-6.07-33.7-9.19-3-1.11-3.57-3.37-5.4-3.92-6.98-2.1-14.96-.79-22.03-2.56-.08-4.46,5.65-1.31,4.14-6.2-1.54-.42-3.04-.96-4.65-1.1-3.19-.29-13.88,1.67-10.93-3.06,1.29-2.06,11.78-1.39,14.39-.41,3.87,1.46,4.91,4.52,7.77,5.8,3.76,1.68,9.33,1.48,13.61,3.1,3.36,1.28,6.46,4.04,10.17,5.5,10,3.93,20.34,6.9,30.25,11.02.28,1.77-2.51,1.13-3.63,1.02ZM486.24,625.31c7.03,4.5,17.79,5.82,25.1,10.41,4.41,2.77,7.83,7.6,12.8,10.18,7.53,3.92,17.39,5.07,25.12,8.84.27,1.79-2.48,1.11-3.62,1.02-14.29-1.19-24.1-8.36-35.51-14.64-5.6-3.08-12.67-5.73-18.31-8.32l1.57,5.21c-7.3-5.7-15.64-12.68-18.28-21.93,1.28-1.3,9.33,8.08,11.13,9.23ZM461.96,594.23c1.72,2.2,9.91,16.62,10.43,18.67.42,1.62-.67,3.73,0,6.34,1.34,5.19,2.79,10.65,5.83,15.12-1.49,1.58-3.88-1.65-4.7-2.61-9.76-11.3-7.93-32.22-21.4-41.79,3.94,12.13,8.87,24.39,10.36,37.18.24,2.06-.19,1.5-2,1.46-6.11-19.09-12.99-42.42-26.15-57.95-9.88-11.65-26.86-17.02-38.54-26.23-4.36-3.44-7.37-8.65-12.61-10.88-1.68,2.31,5,9.79,6.79,11.48,8.56,8.13,22.44,12.86,31.77,20.46,15.09,12.29,26.01,37.34,28.21,56.42.24,2.06-.19,1.5-1.99,1.46-5.98-19.69-12.65-38.41-28.77-52.2-8.49-7.26-21.13-12.61-28.69-20.41-5.08-5.24-15.56-24.86-18.99-32.2-1.75-3.73-3.24-8.13-3.99-12.2,5.18,5.4,7.39,12.96,12.09,18.72,14.15,17.32,41.67,24.07,57.52,40.15,5.43,5.51,9.23,16.46,13.49,20.46,3.37,3.16,7.07,3.07,11.34,8.51ZM450.03,568.02l-22.84-16.32c-21.55-11.14-37.52-26.41-50.08-47.07-3.68-6.06-8.03-13.33-9.59-20.16l12.55,18.25c13.7,21.35,27.2,28.7,47.11,41.68,3.69,2.4,27.1,18.86,22.84,23.63ZM550.31,299.55c.46,1.96-1.09,2.49-2.08,3.66-5.29,6.3-12.24,13.88-19.85,17.22,6.85-7.48,14.23-14.5,21.93-20.88ZM535.69,307.92l-16.7,12.52c2.54-6.62,8.96-13.99,16.7-12.52ZM523.16,307.92c-2.07,3.41-5.71,4.89-8.34,7.85-3.38,3.81-6.93,11.4-10.45,14.62-1.43,1.3-2.04,1.93-4.19,1.55,4.55-10.54,10.46-21.92,22.98-24.01ZM509.58,310l-11.99,15.68c-1.73,1.19-9.72,10.38-10.46,10.41-4.36.16,2.97-10.02,3.68-10.92,1.7-2.16,16.77-17.09,18.77-15.17ZM489.73,319.41l-15.43,20.6-3.36,2.37c2-9.56,8-21.71,18.79-22.97ZM466.36,327.89c2.05-.86,5.53-2.45,7.71-1.69-3.8,5.51-13.73,22.12-19.35,24.53-1.28.55-1.96-.24-1.54-1.54l10.43-14.65c-.93-1.64-2.35.36-3.25.93-7.55,4.88-14.7,16.25-17.65,24.66-1.95.24-.82-2.12-.57-3.18.46-1.95,1.59-5.13,2.47-6.94,1.48-3.04,4.91-5.93,5.41-7.13.69-1.65-.53-2.05-2.1-1.05-5.95,3.83-15.65,16.75-15.65,24.04v17.24c-1.98-.41-1.9-2.06-2.12-3.63-1.4-10.26-1.44-20.9,4.79-29.73,5.12-7.26,23.04-18.37,31.41-21.87ZM487.63,201.36c-.72,8.24-10.65,12.04-15.65,17.76.72-4.64,6.66-7.04,9.39-9.93,2.18-2.31,3.08-6.35,6.26-7.83ZM479.29,207.63l-12.53,10.96-5.22,8.87c.92-10.92,8.19-16.29,17.75-19.83ZM454.23,254.64l5.2,31.85-3.14,14.1c-1.86.24-1.02-2.35-.91-3.52.29-3,1.02-4.99.92-8.47-.32-10.95-4.38-23.23-2.08-33.96ZM456.29,315.22c-1.79,14.29-16.01,19-23.99,28.75-5.06,6.19-10.72,17.21-11.41,25.17-1.13,12.88,8.11,24.7,9.29,36.96-1.38-.71-3.14-3.52-3.98-4.89-11.76-19.21-14.8-39.1.89-57.24,4.47-5.17,9.45-7.71,14.1-12.02,5.59-5.19,9.9-11.26,15.11-16.74ZM445.27,317.26c2.29-10.34,3.25-17.92,2.66-28.66-.11-1.94-3.64-22.48-1.56-22.48,4.35,17.7,10.75,38-.54,54.32-1.96.23-.81-2.11-.57-3.18ZM439.35,314.46c1.76-8.61-.13-16.37.24-24.84.06-1.27-.8-3.88,1.03-3.64,1.11,9.7,4.02,24.24,1.88,33.73-.82,3.64-6.87,8.63-10.22,10.14,1.27-5.68,5.86-9.49,7.06-15.39ZM428.15,323.11c2.25-5.79,2.81-12.25,3.6-18.33,3.25,4.65,1.4,13.3-.47,18.33-.6,1.61-6.31,12-8.4,9.87,1.04-3.73,3.79-6.06,5.27-9.87ZM420.78,331.94c-2.24,9.31-8.84,17.03-10.17,26.9-3.94,29.16,15.21,44.97,23.76,70.23-2.71.69-1.84-.93-2.72-1.95-21.28-24.5-37.77-59.09-16.96-89.27l6.09-5.92ZM416.61,326.72c-7.99,10.2-16.15,21.74-17.65,35.09-3.53,31.51,25.07,52.56,32.26,80.85-4.52-3.82-8.29-9.89-11.72-14.91-17.32-25.41-34.15-54.67-19.81-86.1,2.17-4.75,6.28-7.9,7.5-12.86-11.14,5.67-16.37,19.52-17.76,31.34-4-2.38-1.61-9.89-.72-13.79,2.07-9.14,6.92-15.03,10.96-23.12-6.51-12.57-11.54-25.74-15.43-39.35,13.86,12.33,13.26,36.57,32.37,42.84ZM429.13,459.38c-.61.54-3.46-3.16-3.99-3.83-7.51-9.57-18.88-27.18-24.75-37.93-8.12-14.87-15.56-32.07-19.32-48.59l2.09-.53c5.8,18.72,15.34,35.82,25.29,52.55,5.58,9.4,13.8,18.78,18.42,28.59,1.44,3.06,3.5,6.43,2.26,9.74ZM383.19,262.99l12.03,19.82.48,9.43-6.44-12.87-6.08-16.37ZM398.84,232.69l-11.36-21.53-1.15-4.59c6.3,7.38,13.4,15.7,12.51,26.11ZM399.89,249.4c-2.97.54-1.71-.73-2.35-2.29-4.25-10.43-9.92-19.8-14.35-30.08,7.39,9.57,18.31,19.02,16.7,32.38ZM382.67,247.3c4.37,4.66,6.79,11.63,11.99,15.69-1.37-11.59-9.05-21.39-12.51-32.38,3.68,4.52,7.49,10.22,10.23,15.36,1.36,2.55,4.71,8.07,5.2,10.47,1.29,6.32.26,16.84-.82,23.26l-4.29-11.88c-2.71-5.88-9.62-14.48-11.35-20-.63-2.02.32-1.84,1.57-.52ZM386.81,307.93c1.51,3.01,10.74,17.02,9.8,18.64l-5.06,2.23c-5.12-12.2-11.01-24.22-12.54-37.6,3.65,4.66,5.03,11.22,7.8,16.73ZM371.7,300.6l7.78,17.8c2.69,6.65,10.94,11.24,7.87,18.76-2.83,2.97-18.11-32.55-15.65-36.56ZM367.52,318.36l13.65,27.69-2.15,3.64c-1.63-11.34-12.1-19.38-11.49-31.33ZM289.11,176.32l4.23,18.76c-10.48-.53-19.08-17.59-4.23-18.76ZM339.5,256.01c-7.69-10.87-9.57-17.57-15.46-28.41-1.73-3.19-4.65-5.07-5.65-8.47h-2.07s1.57,11.48,1.57,11.48c-3.29-5.85-2.51-13.78-8.87-17.75l.52,8.35c-2.73-3.04-3.62-7.31-6.38-10.34-2.02-2.22-5.81-3.73-7.75-5.83-1.21-1.31-.45-2.58.53-2.6,2.84-.05,16.77,13.03,21.33,14.17,11.9,9.73,17.57,24.57,25.35,37.33,1.73,2.84,7.03,7.73,7.75,10.08,1.38,4.51-2.78,8.96-2.72,13.62-6.22-.51-.48-7.78-.14-10.19.32-2.3-6.1-8.71-8.01-11.42ZM362.29,351.77l-13.25-11.29c-7.19-5.68-17.05-7.83-22.27-15.85,14.57,4.3,28.27,13.46,35.52,27.14ZM275.25,317.12c-3.23-2.37-6.9-4.68-9.07-8.15l16.02,9.57,9.06,8.17c-5.52-2.36-11.17-6.04-16-9.58ZM310.63,333.95c-2.39-3.24-9.61-9.26-13.67-12.43-9.45-7.36-20.93-12.12-27.65-21.96,1.22-.94,13.01,5.99,15.16,7.29,11.49,6.97,27.4,18.96,30.8,32.39-1.79-1.16-3.34-3.54-4.63-5.3ZM327.88,339.71c-6.81-6.15-12.17-14.61-19.42-20.28-5.76-4.51-13.88-7.05-19.23-11.06-1.45-1.09-3.47-2.54-3.2-4.63,10.41,2.71,24.48,7.63,31.9,15.62,3.86,4.16,6.63,11.24,10.89,15.23,6.38,5.97,18.38,7.99,20.93,17.19l-21.87-12.07ZM329.9,350.75c9.22,4.46,19.31,10.71,27.49,16.9,23.74,17.96,32.08,41.54,46.5,66.32,3.37,5.8,27.96,41.76,25.24,45.26-28.89-23.34-34.39-64.52-57.48-92.42-11.78-14.23-28.4-23.53-41.75-36.06ZM351.85,626.02c6.07-4.97,9.02-12.13,11.49-19.33,1.8-.02,1.15,4.6,1.07,5.78-.51,7.58-5.53,20.76-12.57,24.51l3.12-5.75c-2.73-.5-6.55,4.17-9.49,6.18-9.46,6.45-20.66,14.69-32.28,15.23l38.66-26.61Z"/>
    <path d="M447.95,193c1.48.18,2.8,0,4-.43-.07-.3-.12-.59-.16-.9-1.52-.63-2.91-1.45-4.15-2.42-.09,1.28-.02,2.53.31,3.75Z"/>
    <path d="M453.27,150.37c1.67,3.37,7.47,5.2,8.12,3.76,1.52-3.39-1.66-2.41-3.23-5.82-1.57-3.42.46-5.38-1.83-6.71-3.31-1.91-5.52,3.8-3.05,8.77Z"/>
    <path d="M418.41,215.4c-1.61,2.73,1.18,2.19,2.18,5.23,1,3.04-.9,4.51.9,5.85,2.61,1.94,5.03-2.68,3.42-7.13-1.09-3.01-5.82-5.12-6.51-3.96Z"/>
    <path d="M441.63,197.56c1.67,3.37,7.47,5.2,8.12,3.76,1.52-3.39-1.66-2.41-3.23-5.82-1.57-3.42.46-5.38-1.83-6.71-3.31-1.91-5.52,3.8-3.05,8.77Z"/>
    <path d="M431.84,208.52c-2-3.26-6.66.72-6.85,6.26-.13,3.76,4.1,8.13,5.35,7.17,2.95-2.27-.32-2.91-.08-6.66.24-3.75,2.96-4.52,1.58-6.77Z"/>
    <path d="M434.55,202.06c-1.79,2.47-.92,7.33.36,7.25,3.01-.19,1.1-2.1,2.96-4.52,1.86-2.42,4.04-1.7,4.13-3.84.13-3.1-4.81-2.54-7.45,1.11Z"/>
    <path d="M525.57,211.92c-.63-3.71,1.84-5.08-.02-6.95-2.69-2.71-6.32,2.23-5.23,7.67.74,3.69,5.86,6.97,6.86,5.74,2.35-2.88-.98-2.76-1.61-6.46Z"/>
    <path d="M527.75,226.08c.47-3.69-2.29-1.82-4.77-4.64-2.49-2.82-1.11-5.29-3.68-5.9-3.72-.88-4.19,5.23-.4,9.28,2.57,2.74,8.65,2.83,8.86,1.26Z"/>
    <path d="M511.87,201.31c-1.53-.99-2.73,1.68-1.67,4.11.72,1.65,3.44,2.66,3.78,1.99.81-1.58-.73-1.19-1.4-2.86-.67-1.67.35-2.56-.71-3.24Z"/>
    <path d="M521.21,201.87c-1.57-1.36-1.56.5-3.64.79-2.08.29-2.81-1.11-3.89-.1-1.56,1.46,1.15,3.57,4.21,3.05,2.07-.35,3.99-3.16,3.32-3.74Z"/>
    <path d="M519.2,214.72c.81-1.58-.73-1.19-1.4-2.86-.67-1.67.35-2.56-.71-3.24-1.53-.99-2.73,1.68-1.67,4.11.72,1.65,3.44,2.66,3.78,1.99Z"/>
    <path d="M248.7,225.36c1.46,1.59,4.95,1.67,5.07.77.29-2.11-1.3-1.06-2.71-2.69-1.41-1.63-.61-3.04-2.08-3.4-2.13-.53-2.44,2.98-.28,5.32Z"/>
    <g>
      <g>
        <path d="M1004.2,503.78c0-8.42,6.08-14.86,15.56-14.86,2.11,0,5.26.59,6.79,2.22-1.05-2.34-4.91-4.46-8.65-4.46-12.4,0-21.3,8.96-21.3,22.06,0,4.21,1.52,11.41,5.15,18.55,5.38,10.76,7.25,15.44,6.9,23.16-.47,10.3-9.59,21.64-24.57,21.64-7.02,0-14.27-2.81-14.27-11.58,0-7.37,5.73-13.22,12.75-13.22,1.29,0,2.46.12,3.74.7-1.64-1.75-4.1-2.46-6.79-2.46-7.95,0-16.14,5.85-16.14,14.74,0,10.65,12.17,12.87,20.47,12.87,17.31,0,31.82-12.05,32.52-27.84.35-6.32-1.17-11.58-5.85-21.76-3.51-7.61-6.32-12.75-6.32-19.77Z"/>
        <path d="M1015.49,485.02c11.75,0,17.02,5.16,17.02,13.38,0,6.43-4.21,12.63-11.23,12.87.94.59,2.22.94,3.86.94,4.91,0,12.28-4.33,12.28-13.1,0-9.59-8.77-14.62-20.01-14.62-1.4,0-2.81.23-3.86.59.66-.03,1.31-.04,1.93-.04Z"/>
        <path d="M1062.22,529.76c0-5.15-2.81-8.42-8.07-8.42-8.31,0-17.43,5.85-23.98,13.92-5.62,7.02-7.96,14.86-7.96,20.01,0,8.07,4.8,10.88,10.06,10.88,6.55,0,16.03-5.61,23.51-17.55,5.15-8.31,6.43-14.51,6.43-18.83ZM1032.98,564.97c-2.11,0-4.21-1.05-4.21-5.03,0-6.08,5.03-15.09,8.54-20.59,4.91-7.72,11.82-16.85,17.78-16.85,2.34,0,3.63,1.64,3.63,4.8,0,3.63-3.28,11.7-8.19,20-6.2,10.06-13.34,17.67-17.55,17.67Z"/>
        <path d="M1107.38,500.16c-8.31,0-16.03,5.5-22.34,13.22-3.16,3.98-6.67,9.36-8.89,13.1h-6.67c-1.99,0-2.57.12-2.69.59-.12.82.94.82,3.04.82h5.62c-2.92,5.15-11.93,21.53-17.32,31.94-6.9,13.22-15.67,29.95-25.74,29.95-3.28,0-5.15-1.52-5.03-4.68,0-2.69,1.99-5.26,4.8-5.97-.59-.35-1.87-.7-3.28-.7-3.98,0-7.6,2.46-7.84,6.32-.35,4.56,4.45,6.2,9.94,6.2,14.74,0,27.61-18.37,35.33-31.24,4.68-7.84,12.99-22.93,17.9-31.82h4.17c-.08-.46-.06-.93.08-1.4h-3.67c2.57-4.56,5.03-8.89,7.6-12.52,5.73-8.31,10.18-12.75,14.16-12.75,2.22,0,3.48,1.55,3.16,3.16-.52,2.61-1.15,4.51-5.26,7.84.53.38,1.21.55,1.87.63,2.58-3.4,4.24-4.75,7.02-4.75h1.62c.29-.71.47-1.49.49-2.31.23-3.86-3.51-5.62-8.07-5.62Z"/>
        <path d="M1108.9,526.48c1.99-3.28,10.3-15.68,14.39-20.82-1.87,0-3.28,5.03-7.14,5.03h-2.81c-1.87,0-2.92.82-6.67,6.08-1.64,2.22-4.91,7.02-6.67,9.71h-6.08c-.38,0-.74,0-1.06,0-.98,0-1.68.07-1.86.59-.23.47,0,.82,1.17.82h6.79c-5.15,7.49-9.59,14.62-11.93,19.19-2.57,5.15-3.74,9.24-3.51,12.63.35,4.09,3.04,6.55,8.07,6.55s9.64-3.03,13.67-7.5c.02-.65.06-1.29.16-1.94-.09.11-.17.2-.26.31-3.86,4.45-7.95,7.14-11.11,7.14-2.57,0-3.63-1.64-3.63-3.74,0-2.34.94-5.03,2.22-7.6,3.16-6.2,8.77-15.79,15.32-25.04h4.56c.16,0,.29,0,.44,0,.19-.48.4-.95.63-1.4,0,0-.01,0-.02,0h-4.68Z"/>
        <path d="M1173.36,526.71c0-2.46-1.4-4.45-3.74-4.45-3.04,0-5.03,1.87-6.32,4.56.47-.23,1.05-.35,1.4-.35.06,0,.12,0,.18,0,1.86,0,2.73,1.73,2.51,4.33-.59,5.5-4.21,12.87-8.54,19.07-6.2,8.77-12.99,14.74-17.78,14.74-1.99,0-3.39-1.29-3.28-3.74.12-3.04,3.04-8.19,8.31-15.91,5.15-7.72,7.25-11.82,7.37-15.79,0-2.92-1.64-5.03-5.03-5.03-3.04,0-4.91,1.52-5.38,2.57.23-.12.7-.23,1.05-.23,1.17,0,1.64.94,1.64,2.11,0,2.81-3.16,7.72-6.08,12.05-2.57,3.74-4.56,7.13-6.2,10.53,0,0,0,0,0,0-5.26,7.37-11.46,13.22-15.91,13.22-2.11,0-3.04-1.17-3.04-3.51.12-3.04,2.81-7.72,8.77-16.38,5.73-8.42,8.31-12.63,8.42-16.73.12-3.51-2.34-5.85-6.2-5.85-6.08,0-10.88,4.68-11,11.35,0,1.29.23,2.69.82,4.21-.12-.82-.23-1.75-.23-2.46,0-5.73,3.63-10.3,7.14-10.3,1.76,0,2.11,1.17,2.11,2.11,0,3.04-4.68,9.24-7.72,13.45-4.56,6.43-8.77,12.99-8.77,18.83,0,4.8,3.16,7.02,7.72,7.02,5.92,0,11.38-5.07,16.5-11.21.03-.03.07,0,.06.03-.54,1.81-.65,3.62-.53,5.09.35,4.33,3.63,6.08,7.72,6.08,7.25,0,15.44-7.25,21.99-15.21,7.84-9.59,12.05-18.25,12.05-24.22Z"/>
        <path d="M1202.14,564.15c-1.75,0-2.69-1.17-2.69-2.69,0-1.87.82-3.98,2.69-7.6,4.09-7.6,12.52-21.17,19.42-30.88-.05-.01-.1-.02-.15-.02-1.28,0-3.13,4-6.28,4.11-.46.02-.9.03-1.33.03-1.99,0-3.61-.21-4.29-.5.23-3.74-2.81-5.15-5.97-5.15-8.66,0-18.25,5.61-26.2,15.09-5.85,7.02-8.66,14.74-8.66,20.71s3.28,8.77,7.96,8.77,8.42-3.04,11.82-6.43c2.11-2.22,4.56-5.38,6.08-7.49.12-.16.23-.23.31-.23.15,0,.2.23.04.46-.47.94-1.87,3.98-1.87,7.14,0,4.21,2.46,6.79,7.02,6.79s8.57-2.99,12.3-6.95c.03-.64.1-1.31.22-2-.12.14-.23.27-.35.41-3.51,3.98-7.25,6.43-10.06,6.43ZM1187.87,558.3c-3.04,3.28-6.67,5.97-9.48,5.97-1.87,0-3.04-1.29-3.04-3.51,0-5.85,4.91-14.04,8.54-19.54,4.21-6.43,13.8-18.48,20.94-18.48,2.22,0,4.09,1.76,3.51,5.5-.58,1.17-3.86,6.55-5.5,9.24-5.38,8.54-9.48,15.21-14.97,20.82Z"/>
        <path d="M1253.38,521.57c-5.85,0-12.28,7.02-19.42,16.26-.17.21-.31.3-.4.3-.16,0-.18-.28.05-.65,1.99-2.69,4.45-7.14,4.45-10.65,0-2.69-1.76-4.8-5.26-4.8-6.2,0-11.64,4.62-13.81,11,3.39-4.56,6.55-7.84,9.48-7.84,1.17,0,1.87.7,1.87,1.87,0,2.57-3.39,8.42-9.01,17.2-4.68,7.25-6.43,12.05-6.43,15.68s2.13,6.2,5.83,6.2c.08,0,.17,0,.25,0-.7-1.29-.12-4.21.82-6.67,1.52-4.1,5.97-11.82,12.4-20.24,7.84-10.29,13.57-14.97,16.38-14.97,1.17,0,1.87.47,1.87,1.76,0,4.33-5.15,10.18-7.49,10.53.82.59,1.99.94,3.74.94,4.21,0,10.3-4.21,10.3-10.88,0-2.92-2.34-5.03-5.62-5.03Z"/>
        <path d="M1284.5,521.33c-6.55,0-15.91,3.39-23.98,12.05-7.14,7.6-10.41,16.85-10.41,22.81,0,7.02,4.56,9.94,10.76,9.94,5.26,0,10.3-2.22,14.86-6.43,4.09-3.98,6.08-8.66,6.08-11.93,0-1.17-.35-1.75-.7-2.46.7,3.98-3.98,10.41-6.43,12.99-4.09,4.09-8.66,6.55-12.28,6.55s-5.15-2.22-5.15-5.38c0-4.68,3.16-12.75,9.12-21.29.82,1.29,3.28,2.92,7.37,2.92,10.3,0,18.25-6.08,18.25-13.8,0-3.63-2.92-5.97-7.49-5.97ZM1272.72,539.93s-.1,0-.15,0c-2.69-.12-5.27-1.52-5.73-2.34,1.64-2.22,3.98-5.38,6.32-7.6,3.51-3.51,7.96-7.49,12.05-7.49,1.76,0,2.57,1.17,2.57,2.69,0,5-6.94,14.74-15.06,14.74Z"/>
      </g>
      <path d="M726.51,604.62s-9.22-8.25-9.43-8.63c-11.93-42.42-23.56-84.91-34.75-127.53.88-3.62,1.32-5.43,2.2-9.06-12.54,1.54-18.88,2.14-31.77,2.93,1.12,3.46,1.69,5.19,2.82,8.63-8.81,45.28-18.43,90.35-29.05,135.23-2.1,4.21-3.17,6.31-5.32,10.51,13.68-.53,20.34-.96,33.35-2.09-.95-2.32-1.43-3.49-2.38-5.82,2.1-9.48,3.13-14.23,5.16-23.71,1.17-1.31,1.76-1.96,2.92-3.27,9.95-.91,14.84-1.46,24.45-2.72,1.2,1.04,1.8,1.56,3,2.6,2.51,8.94,3.78,13.39,6.32,22.29-.75,2.51-1.12,3.76-1.88,6.27,9.72-1.41,26.54-4.2,34.36-5.65ZM678.97,554.22c-5.66.68-8.52.98-14.28,1.54-.96-.79-1.44-1.19-2.4-1.98,2.75-16.45,5.39-32.93,7.95-49.41,3.58,15.81,7.23,31.61,10.95,47.39-.88.99-1.32,1.48-2.21,2.47Z"/>
      <path d="M815.67,580.37c-3.31-3.7-4.97-5.55-8.3-9.27-10.51-22.84-21.07-45.65-31.65-68.45,7.17-18.69,14.26-37.4,21.3-56.13,1.55-3.06,2.68-5.32,3.84-7.62v-.21s1.44-2.66,1.44-2.66c.6-1.2,1.25-2.49,1.99-3.97l-1.77.51c-10.74,3.46-16.73,5.28-28.2,8.49.79,1.54,1.18,2.31,1.97,3.84-8.29,22.18-16.69,44.31-25.26,66.38-1.07-17.86-2.13-35.72-3.2-53.57.88-4.12,1.31-6.18,2.19-10.31-10.83,2.61-16.29,3.81-27.33,5.95,1.34,3.65,2,5.48,3.34,9.12,2.41,43.58,4.81,87.15,7.22,130.73-.14.62-4.39,10.91-4.39,10.91,7.77-1.65,21.23-4.83,30.14-7.06-1.36-3.58-2.04-5.37-3.39-8.95-.71-11.9-1.06-17.84-1.77-29.74,3.97-9.84,5.93-14.77,9.83-24.66,7.69,16.4,15.4,32.79,23.08,49.19-.59,2.81-.88,4.22-1.46,7.03,12.38-3.61,18.44-5.53,30.39-9.55Z"/>
      <path d="M914.58,390.25c.79,1.99,1.18,2.98,1.97,4.97-4.06,32.21-7.97,64.43-11.75,96.67-5.89-27.32-11.91-54.6-18.06-81.86.59-3.59.88-5.39,1.47-8.98-10.42,4.2-15.63,6.28-26.08,10.31.88,3.02,1.32,4.53,2.2,7.55-3.55,31.13-7,62.28-10.37,93.43-6.47-28.28-13.04-56.54-19.7-84.78.47-2.49.7-3.74,1.17-6.23-4.69,1.69-8.33,2.99-11.87,4.22l-6.44,12.84c-.85,1.69-1.57,3.13-2.24,4.47.06.13.11.25.17.39,9.97,39.19,19.8,78.42,29.42,117.7-.57,3.9-.85,5.84-1.42,9.74,11.13-4.12,16.63-6.26,27.54-10.61-.93-3.31-1.39-4.97-2.32-8.28,3.04-30.46,6.17-60.91,9.38-91.35,5.94,26.79,11.72,53.62,17.35,80.47-.61,3.93-.91,5.89-1.51,9.82,10.73-4.46,16.06-6.73,26.71-11.29-.84-3.31-1.27-4.96-2.12-8.27,5.59-44.46,18.58-142.95,18.58-142.95l7.58-10.61c-8.46,3.53-20.34,8.77-29.66,12.63Z"/>
      <path d="M1199.28,448.91c-3.56-4.31-5.33-6.46-8.82-10.73-9.51-24.3-18.85-48.65-28.08-73.05,9.81-18.56,19.72-37.06,29.72-55.51,3.93-5.56,5.9-8.33,9.85-13.85-13.99,2.18-20.87,3.45-34.4,6.26.69,1.62,1.04,2.43,1.73,4.05-11.48,22.4-22.8,44.86-33.96,67.42.73-18.26,1.46-36.53,2.2-54.79,1.34-4.24,2.01-6.37,3.36-10.61-11.65,2.88-17.4,4.42-28.77,7.68,1.01,3.61,1.51,5.41,2.52,9.03-1.69,44.37-3.39,88.75-5.08,133.12-1.18,3.91-1.83,6.04-2.92,9.65l.07.21.21.62c10.74-3,16.42-4.48,27.8-7.19-1.02-3.67-1.53-5.5-2.55-9.16.49-12.17.73-18.25,1.22-30.42,5.07-10.1,7.63-15.13,12.77-25.18,6.46,17.18,12.97,34.34,19.56,51.48-.95,2.83-1.43,4.24-2.38,7.07,14-2.74,21.17-3.97,35.95-6.1Z"/>
      <path d="M1243.34,354.58c-1.23-1.1-1.84-1.65-3.06-2.75.33-12.94.5-19.41.82-32.34,1.27-1.25,1.9-1.87,3.17-3.11,8.03-.71,12.09-1.01,20.3-1.49,1.25,1.06,1.88,1.59,3.14,2.65-.06,4.04-.09,6.06-.15,10.1-1.34,3.95-2.01,5.92-3.36,9.88,13.59-.79,20.51-1.03,34.67-1.15-1.51-3.86-2.26-5.79-3.75-9.65.02-10.5.03-15.75.05-26.24-5.47-4.94-8.16-7.38-13.48-12.22-17.52.57-35.02,1.85-52.44,3.83-5.48,5.62-8.21,8.45-13.65,14.17-.7,21.42-1.41,42.85-2.11,64.27,5.19,4.47,7.81,6.74,13.12,11.31,14.42-1.59,21.79-2.22,36.91-3.1,1.28,1.14,1.93,1.71,3.22,2.85-.2,12.93-.3,19.4-.49,32.33-1.35,1.2-2.02,1.81-3.36,3.01-8.56.5-12.78.8-21.09,1.52-1.26-1.02-1.88-1.53-3.13-2.55.1-4.04.15-6.06.26-10.11,1.46-4.01,2.19-6.01,3.64-10.01-13.18,1.14-19.76,1.87-32.14,3.51-.14.4-.28.79-.43,1.18.82,3.04,1.33,4.9,2.24,8.25-.34,10.35-.51,15.52-.85,25.87,5.27,4.4,7.94,6.62,13.35,11.11,18.49-1.99,37-3.11,55.58-3.94,5.82-5.29,8.74-7.91,14.6-13.1.04-21.33.09-42.66.13-64-5.66-5-8.44-7.48-13.93-12.38-15.46.52-23,.99-37.76,2.29Z"/>
      <path d="M606.37,415.12l-18.03-17.75h-72.41l-18.32,17.75v181.75l18.32,18.03h72.41l18.03-18.03v-181.75ZM569.74,574.55l-4.29,4.01h-27.48l-4.29-4.01v-136.52l4.29-4.01h27.48l4.29,4.01v136.52Z"/>
      <path d="M1002.11,488.48l-9.08.41,18.52-7.29c.46-40.37.91-79.06,1.36-119.43-4.18-3.28-6.28-4.91-10.48-8.15-14.08,5.66-42.14,17.19-42.14,17.19l-7.89,13.57s-1.22,90.4-.66,128.59c4.05,3.28,6.06,4.92,10.07,8.22,10.58-4.53,19.54-8.98,30.19-13.35.24-8.64,4.01-15.66,10.09-19.77ZM991.19,481.29c-.96,1.5-1.43,2.26-2.39,3.76-6.09,2.51-9.12,3.77-15.15,6.31-.95-.71-1.42-1.07-2.37-1.78-.18-31.5-.37-62.99-.55-94.49.98-1.52,1.47-2.28,2.45-3.79,6.31-2.61,9.47-3.91,15.82-6.49.99.71,1.48,1.06,2.47,1.77-.09,31.57-.18,63.14-.27,94.71Z"/>
      <path d="M1097.65,470.57l-7.24-6.4s-5.64-30.72-8.29-45.58c4.61-6.55,6.94-9.81,11.63-16.32.82-23.16,1.64-46.31,2.46-69.47-4.39-3.58-6.58-5.36-10.95-8.88-19.36,6.38-38.52,13.15-57.62,20.27,1.03,3.49,1.54,5.24,2.56,8.74-.77,43.68-1.48,86.82-2.25,130.5,4.11.96,7.85,3.43,9.62,6.9,4.06-1.15,7.19-1.97,13.19-4.1-.96-3.46-1.44-5.19-2.41-8.65.37-14.99.73-29.98,1.1-44.97,1.04-1.56,1.56-2.34,2.6-3.9,2.76-.98,4.15-1.47,6.93-2.43.65.73.98,1.09,1.63,1.82,2.64,14.24,5.24,28.49,7.81,42.75-.86,4.01-1.29,6.02-2.14,10.03,9.49-3.18,22.49-7.65,31.37-10.32ZM1052.68,403.53c-.99-.76-1.48-1.14-2.47-1.89.37-15.19.56-22.79.93-37.98,1.06-1.49,1.58-2.23,2.64-3.72,6.74-2.39,10.13-3.57,16.96-5.86,1.01.77,1.52,1.16,2.53,1.93-.47,15.23-.7,22.84-1.16,38.06-1.07,1.47-1.61,2.2-2.67,3.67-6.75,2.27-10.1,3.42-16.75,5.78Z"/>
    </g>
  </g>
  <g>
    <path d="M352.03,243.55c.74,1.28,1.51,2.53,2.28,3.69,2.15,3.21,3.81,4.91,5,5.83-.18-.76-.43-1.56-.79-2.4-1.86-4.39-5.06-5.4-6.5-7.11Z"/>
    <path d="M342.12,206.77c2.32-4.55.15-5.33-2.41-7.45,0,.07-.03.15-.04.22-.3,2.23-1.31,4.89-2.42,7.7,2.38.68,4.32.6,4.87-.46Z"/>
    <path d="M349.38,218.05c.71,1.65,3.44,2.67,3.78,1.99.81-1.58-.73-1.19-1.4-2.86-.22-.54-.25-1-.24-1.4-.61-.57-1.19-1.17-1.74-1.79-.78.63-1.12,2.38-.4,4.05Z"/>
    <path d="M361.85,237.17c.11-1.03.24-2.04.39-3.04.32-2.26.63-4.39.38-5.93-.57-3.54-3.7-6.13-7.32-9.12,0,0,0,0,0,0-.41,1.72-.64,3.57-.59,5.51.14,4.84,3.81,9.95,7.15,12.58Z"/>
    <path d="M362.68,246.91c.01-.58-.18-1.43-.38-2.32-.3-1.32-.66-2.97-.63-4.82-4.18-2.32-8.61-3.06-9.45-1.34-.94,1.93-1.07,3.17-.75,4.12.19.33.37.67.56.99,1.43,1.72,4.64,2.72,6.5,7.11.36.85.61,1.64.79,2.4.74.57,1.3.83,1.68.95.76-1.91,1.65-5.81,1.68-7.1Z"/>
    <path d="M347.7,215.24c1.31-5.51-4.82-7.55-11.48-5.38-.67,1.74-1.35,3.65-1.39,4.4.18,1.46,2.33,4.26,4.03,6.35,4.34-2.1,7.82-1.12,8.83-5.38Z"/>
    <path d="M352.59,225.38c-.33-5.39-6.23-5.81-11.76-2.36.94,1.17,1.79,2.3,2.41,3.37.79,1.36,1.72,3.3,2.91,5.75.06.12.12.26.19.38,3.33-2.73,6.5-3.04,6.25-7.14Z"/>
    <path d="M357.2,235.3c1.85-3.07-3.47-5.24-8.17-3-.76.36-1.44.95-2.01,1.63.65,1.33,1.36,2.77,2.1,4.23.42-.45.97-.9,1.76-1.25,3.23-1.42,5.04.52,6.32-1.61Z"/>
    <path d="M544.1,281.65c.86,1.98,2.4,3.74,4.2,5.21,1.96-1.53,3.75-3.22,5.66-5.02.55-.52,1.11-1.05,1.68-1.58-.46-.66-.88-1.43-1.25-2.34-1.25-3.13-1.13-5.62-.96-7.69-2.52-.73-4.96-1.58-7.17-2.36-.79-.28-1.55-.55-2.27-.79-.18.13-.37.24-.54.36-1.47,3.66-1.58,9.06.65,14.22Z"/>
    <path d="M514.03,296.43c1.69-.42,3.33-.74,4.93-.99,2.87-3.8-2.5-5.27-2.5-12.18,0-1.36.18-2.54.44-3.59-1.56.53-3.12,1.05-4.67,1.57-2.26.75-4.48,1.5-6.65,2.25.46,5.34,4.97,10.85,8.45,12.94Z"/>
    <path d="M539.2,275.54c2.26-1.24,2-3.54.24-5.54-2.18,1.29-4.44,2.48-6.77,3.56,3.05,1.1,4.04,3.34,6.53,1.98Z"/>
    <path d="M531.83,287.34c2,2,2.94,3.97,3.58,5.71,1.56-.38,3.13-.86,4.74-1.5,1.99-.79,3.69-1.69,5.25-2.67-.89-3.07-2.96-6.88-5.83-9.58-3.17-2.99-8.29-3.57-12.41-3.4-1.87.75-3.77,1.47-5.68,2.15-.04.11-.09.21-.1.32-.51,7.66,4.94,3.47,10.44,8.96Z"/>
    <path d="M471.13,312.47c1.21,0,2.11-.07,2.9-.23,1.12-.22,2.33-.56,3.59-.96,4.4-5.34,5.26-11.85,2.08-14.16-4.07,3.95-7.08,8.86-8.58,15.35Z"/>
    <path d="M484.86,308.53c2.76-1.18,5.61-2.5,8.43-3.82,1.23-3.67,1.15-8.84-1.1-13.75-.27-.58-.61-1.13-.98-1.67-3.37,1.67-6.45,3.56-9.17,5.77,2.79,6.78-.97,10.65,2.82,13.48Z"/>
    <path d="M498.46,297.96c.04,1.83-.24,3.34-.64,4.64,3.92-1.8,7.84-3.5,11.56-4.79-.4-5.16-4.7-10.47-8.21-12.75-2.14.79-4.23,1.61-6.24,2.48-.41,2.73,3.42,4.62,3.54,10.41Z"/>
    <path d="M523.01,287.07c-3.78,3.45-2,4.94-.35,7.86.92-.11,1.82-.21,2.72-.31,2.46-.27,4.85-.53,7.26-.97-3.09-4.73-8-8.08-9.64-6.58Z"/>
    <path d="M557.75,276.48c3.72-.52,3.19-2.18,3.42-4.66-2.11-.21-4.26-.65-6.38-1.21.34,3.29,1.64,6.05,2.96,5.86Z"/>
    <path d="M562.06,274.88c.37-.27.71-.54,1.1-.81,1.5-1.04,3.17-1.85,4.8-2.61-1.34.33-2.8.51-4.36.51-.22,0-.44-.02-.66-.03"/>
    <path d="M638.52,322.11c-1.45-.32-2.88-.65-4.28-.98-1.06-.25-2.11-.49-3.15-.73.16.55.39,1.16.76,1.88.68,1.33,3.51,1.12,6.67-.17Z"/>
    <path d="M633.11,328.59c-.04.45.19.88.59,1.29,3.32-1.36,6.39-2.82,8.67-4.17l.06-.04.21-.13,3.28-1.95-3.43-.66c-.21-.04-.42-.09-.63-.13-4.78,1.79-8.24-.65-8.76,5.78Z"/>
    <path d="M626.07,319.35c-.74-.14-1.49-.26-2.23-.38.08.08.14.14.23.22.46.4,1.17.43,2,.16Z"/>
    <path d="M614.77,335c.11,0,.24-.02.35-.02-1.25-.54-2.52-.61-3.67-.08.9.08,1.78.12,2.64.12.23,0,.46,0,.68,0Z"/>
    <path d="M593.39,328.14c2.66,2.43,6.81,4.35,11.21,5.53-.41-4.04-1.85-7.63-3.77-10.28-2.76,1.68-5.5,3.42-7.44,4.75Z"/>
    <path d="M615.09,329.31c-3.94-.86-7.57,1.7-5.64,3.69,1.34,1.38,2.36-.4,5.05.11,1.56.29,2.17,1.23,2.82,1.64.55-.08,1.12-.17,1.71-.29.05-.03.09-.06.14-.1.9-.71-1.41-4.47-4.08-5.05Z"/>
    <path d="M612.46,327.02c2.19-3.08-.94-4.64-1.65-9.18-1.28.49-4.38,2.21-7.78,4.23,1.96,5.66,6.71,8.78,9.43,4.95Z"/>
    <path d="M614.99,324.97c4.7,7.59,14.4,9.41,14.59,3.27.13-4.25-4.29-3.15-7.62-8.19-.34-.51-.58-1-.79-1.48-2.31-.34-5.23-.74-7.66-.83-.15,2.51.23,5.21,1.49,7.23Z"/>
    <path d="M571.48,303.55c.46-.9.15-1.16-.31-1.52-.36.5-.72,1-1.11,1.52.68.25,1.27.29,1.42,0Z"/>
    <path d="M586.33,294.27c-4.55-6.45-13.64,2.36-13.3,13.82.01.41.06.82.12,1.23,3.67-.92,7.46-2.32,11.19-4.18,1.17-5.14,4.63-7.13,1.99-10.87Z"/>
    <path d="M586.82,289.91c.93.44,2.06.55,3.38.17,1.09-.31,1.8-.79,2.31-1.39-1.68.33-3.42.69-5.28,1.12-.14.03-.27.07-.41.1Z"/>
    <path d="M596.59,297.87c3.1-2.14,6.21-4.52,9.32-7.12.1-1.39.4-2.94,1.14-4.68.1-.24.21-.44.32-.65-3.65,1.1-7.35,1.83-11.36,2.59-.3.06-.6.12-.9.17-.49,3.8.14,7.31,1.49,9.68Z"/>
    <path d="M615.29,282.26c-1.39.72-2.76,1.31-4.13,1.85-.71,1.14-1.3,2.35-1.72,3.59,1.95-1.73,3.89-3.53,5.85-5.44Z"/>
    <path d="M593.78,294.85c-1.82-1.34-7.26,4.18-8.22,9.66,3.4-1.76,6.79-3.76,10.17-6.05.3-1.13,0-2.18-1.95-3.61Z"/>
    <path d="M568.89,305.11c-1.14,1.47-2.41,3-3.91,4.59-.25.26-.54.52-.99.88,2.19-.01,4.52-.27,6.92-.75.02-.29.03-.61,0-.95-.11-1.81-.88-3.04-2.02-3.77Z"/>
  </g>
</svg>